<?xml version="1.0" encoding="UTF-8" standalone="no"?>
<!-- Created with Inkscape (http://www.inkscape.org/) -->
<svg
   xmlns:dc="http://purl.org/dc/elements/1.1/"
   xmlns:cc="http://creativecommons.org/ns#"
   xmlns:rdf="http://www.w3.org/1999/02/22-rdf-syntax-ns#"
   xmlns:svg="http://www.w3.org/2000/svg"
   xmlns="http://www.w3.org/2000/svg"
   xmlns:xlink="http://www.w3.org/1999/xlink"
   xmlns:sodipodi="http://sodipodi.sourceforge.net/DTD/sodipodi-0.dtd"
   xmlns:inkscape="http://www.inkscape.org/namespaces/inkscape"
   width="744.09448819"
   height="1052.3622047"
   id="svg2"
   sodipodi:version="0.32"
   inkscape:version="0.46+pre4"
   sodipodi:docname="Smoothie Fruits.svg"
   inkscape:output_extension="org.inkscape.output.svg.inkscape"
   inkscape:export-filename="C:\Users\danny\Documents\Tomatoes\FoodAndMoney.png"
   inkscape:export-xdpi="47.299999"
   inkscape:export-ydpi="47.299999">
  <sodipodi:namedview
     id="base"
     pagecolor="#ffffff"
     bordercolor="#666666"
     borderopacity="1.0"
     gridtolerance="10000"
     guidetolerance="10"
     objecttolerance="10"
     inkscape:pageopacity="1"
     inkscape:pageshadow="2"
     inkscape:zoom="0.49497475"
     inkscape:cx="764.52788"
     inkscape:cy="769.92259"
     inkscape:document-units="px"
     inkscape:current-layer="layer1"
     showgrid="false"
     inkscape:window-width="1276"
     inkscape:window-height="974"
     inkscape:window-x="0"
     inkscape:window-y="14" />
  <defs
     id="defs4">
    <inkscape:perspective
       sodipodi:type="inkscape:persp3d"
       inkscape:vp_x="0 : 526.18109 : 1"
       inkscape:vp_y="0 : 1000 : 0"
       inkscape:vp_z="744.09448 : 526.18109 : 1"
       inkscape:persp3d-origin="372.04724 : 350.78739 : 1"
       id="perspective5668" />
    <pattern
       inkscape:collect="always"
       xlink:href="#pattern5492"
       id="pattern5508"
       patternTransform="matrix(0.2366354,0,0,0.2366354,607.61951,254.85951)" />
    <filter
       inkscape:collect="always"
       id="filter5675"
       x="-0.15010013"
       width="1.3002003"
       y="-0.084490381"
       height="1.1689808">
      <feGaussianBlur
         inkscape:collect="always"
         stdDeviation="0.81752224"
         id="feGaussianBlur5677" />
    </filter>
    <filter
       inkscape:collect="always"
       id="filter5655"
       x="-0.10642644"
       width="1.2128529"
       y="-0.091928563"
       height="1.1838571">
      <feGaussianBlur
         inkscape:collect="always"
         stdDeviation="0.81752224"
         id="feGaussianBlur5657" />
    </filter>
    <filter
       inkscape:collect="always"
       id="filter5659"
       x="-0.15583416"
       width="1.3116683"
       y="-0.067075515"
       height="1.134151">
      <feGaussianBlur
         inkscape:collect="always"
         stdDeviation="0.81752224"
         id="feGaussianBlur5661" />
    </filter>
    <filter
       inkscape:collect="always"
       id="filter5663"
       x="-0.23437774"
       width="1.4687555"
       y="-0.059561026"
       height="1.1191221">
      <feGaussianBlur
         inkscape:collect="always"
         stdDeviation="0.81752224"
         id="feGaussianBlur5665" />
    </filter>
    <filter
       inkscape:collect="always"
       id="filter5671"
       x="-0.19930088"
       width="1.3986018"
       y="-0.060041476"
       height="1.120083">
      <feGaussianBlur
         inkscape:collect="always"
         stdDeviation="0.81752224"
         id="feGaussianBlur5673" />
    </filter>
    <filter
       inkscape:collect="always"
       id="filter5667"
       x="-0.29456988"
       width="1.5891398"
       y="-0.053948852"
       height="1.1078977">
      <feGaussianBlur
         inkscape:collect="always"
         stdDeviation="0.81752224"
         id="feGaussianBlur5669" />
    </filter>
    <linearGradient
       id="linearGradient5138">
      <stop
         style="stop-color:#721045;stop-opacity:1;"
         offset="0"
         id="stop5140" />
      <stop
         style="stop-color:#891348;stop-opacity:1;"
         offset="1"
         id="stop5142" />
    </linearGradient>
    <linearGradient
       id="linearGradient3890">
      <stop
         style="stop-color:#c21c1c;stop-opacity:1;"
         offset="0"
         id="stop3892" />
      <stop
         style="stop-color:#9d1616;stop-opacity:1;"
         offset="1"
         id="stop3894" />
    </linearGradient>
    <linearGradient
       id="linearGradient3168">
      <stop
         id="stop3170"
         offset="0"
         style="stop-color:#ffffff;stop-opacity:1;" />
      <stop
         id="stop3172"
         offset="1"
         style="stop-color:#eaee40;stop-opacity:1;" />
    </linearGradient>
    <radialGradient
       inkscape:collect="always"
       xlink:href="#linearGradient5138"
       id="radialGradient2785"
       gradientUnits="userSpaceOnUse"
       gradientTransform="matrix(2.4527898,0,0,6.3869415,-376.50296,-89.96143)"
       cx="133.73128"
       cy="22.201369"
       fx="133.73128"
       fy="22.201369"
       r="22.491397" />
    <radialGradient
       inkscape:collect="always"
       xlink:href="#linearGradient3890"
       id="radialGradient2819"
       gradientUnits="userSpaceOnUse"
       gradientTransform="matrix(1.0442045,0,0,0.7254359,-146.14675,-350.80017)"
       cx="117.99838"
       cy="474.18445"
       fx="117.99838"
       fy="474.18445"
       r="79.981361" />
    <radialGradient
       inkscape:collect="always"
       xlink:href="#linearGradient3890"
       id="radialGradient2829"
       gradientUnits="userSpaceOnUse"
       gradientTransform="matrix(1.0442045,0,0,0.7254359,-146.14675,-350.80017)"
       cx="117.99838"
       cy="474.18445"
       fx="117.99838"
       fy="474.18445"
       r="79.981361" />
    <filter
       inkscape:collect="always"
       id="filter4586"
       x="-0.10417112"
       width="1.2083422"
       y="-0.55517561"
       height="2.1103512">
      <feGaussianBlur
         inkscape:collect="always"
         stdDeviation="0.48545031"
         id="feGaussianBlur4588" />
    </filter>
    <pattern
       patternUnits="userSpaceOnUse"
       width="500"
       height="500"
       patternTransform="translate(541.95959,203.34173)"
       id="pattern5492">
      <image
         xlink:href="C:\Users\danny\Pictures\Watermelon.jpg"
         sodipodi:absref="C:\Users\danny\Pictures\Watermelon.jpg"
         width="500"
         height="500"
         id="image5488"
         x="0"
         y="0" />
    </pattern>
    <radialGradient
       inkscape:collect="always"
       xlink:href="#linearGradient3890"
       id="radialGradient5529"
       gradientUnits="userSpaceOnUse"
       gradientTransform="matrix(1.0442045,0,0,0.7254359,-146.14675,-350.80017)"
       cx="117.99838"
       cy="474.18445"
       fx="117.99838"
       fy="474.18445"
       r="79.981361" />
    <radialGradient
       r="79.981361"
       fy="474.18445"
       fx="117.99838"
       cy="474.18445"
       cx="117.99838"
       gradientTransform="matrix(1.0442045,0,0,0.7254359,-146.14675,-350.80017)"
       gradientUnits="userSpaceOnUse"
       id="radialGradient5806"
       xlink:href="#linearGradient3890"
       inkscape:collect="always" />
    <radialGradient
       r="79.981361"
       fy="474.18445"
       fx="117.99838"
       cy="474.18445"
       cx="117.99838"
       gradientTransform="matrix(1.0442045,0,0,0.7254359,-146.14675,-350.80017)"
       gradientUnits="userSpaceOnUse"
       id="radialGradient5809"
       xlink:href="#linearGradient3890"
       inkscape:collect="always" />
    <radialGradient
       r="79.981361"
       fy="474.18445"
       fx="117.99838"
       cy="474.18445"
       cx="117.99838"
       gradientTransform="matrix(1.0442045,0,0,0.7254359,764.85196,-209.4761)"
       gradientUnits="userSpaceOnUse"
       id="radialGradient5816"
       xlink:href="#linearGradient3890"
       inkscape:collect="always" />
    <radialGradient
       inkscape:collect="always"
       xlink:href="#linearGradient3890"
       id="radialGradient6102"
       gradientUnits="userSpaceOnUse"
       gradientTransform="matrix(1.0442045,0,0,0.7254359,764.85196,-209.4761)"
       cx="117.99838"
       cy="474.18445"
       fx="117.99838"
       fy="474.18445"
       r="79.981361" />
    <radialGradient
       inkscape:collect="always"
       xlink:href="#linearGradient3890"
       id="radialGradient6107"
       gradientUnits="userSpaceOnUse"
       gradientTransform="matrix(1.0102247,0.2642141,-0.1835564,0.7018293,916.1245,-388.31246)"
       cx="117.99838"
       cy="474.18445"
       fx="117.99838"
       fy="474.18445"
       r="79.981361" />
    <radialGradient
       inkscape:collect="always"
       xlink:href="#linearGradient3890"
       id="radialGradient6114"
       gradientUnits="userSpaceOnUse"
       gradientTransform="matrix(1.0102247,0.2642141,-0.1835564,0.7018293,916.1245,-388.31246)"
       cx="117.99838"
       cy="474.18445"
       fx="117.99838"
       fy="474.18445"
       r="79.981361" />
    <radialGradient
       inkscape:collect="always"
       xlink:href="#linearGradient3890"
       id="radialGradient6124"
       gradientUnits="userSpaceOnUse"
       gradientTransform="matrix(1.0102247,0.2642141,-0.1835564,0.7018293,916.1245,-388.31246)"
       cx="117.99838"
       cy="474.18445"
       fx="117.99838"
       fy="474.18445"
       r="79.981361" />
    <radialGradient
       inkscape:collect="always"
       xlink:href="#linearGradient3890"
       id="radialGradient6136"
       gradientUnits="userSpaceOnUse"
       gradientTransform="matrix(1.0102247,0.2642141,-0.1835564,0.7018293,916.1245,-388.31246)"
       cx="117.99838"
       cy="474.18445"
       fx="117.99838"
       fy="474.18445"
       r="79.981361" />
    <radialGradient
       inkscape:collect="always"
       xlink:href="#linearGradient3890"
       id="radialGradient6138"
       gradientUnits="userSpaceOnUse"
       gradientTransform="matrix(1.0102247,0.2642141,-0.1835564,0.7018293,916.1245,-388.31246)"
       cx="117.99838"
       cy="474.18445"
       fx="117.99838"
       fy="474.18445"
       r="79.981361" />
  </defs>
  <metadata
     id="metadata7">
    <rdf:RDF>
      <cc:Work
         rdf:about="">
        <dc:format>image/svg+xml</dc:format>
        <dc:type
           rdf:resource="http://purl.org/dc/dcmitype/StillImage" />
      </cc:Work>
    </rdf:RDF>
  </metadata>
  <g
     id="layer1"
     inkscape:groupmode="layer"
     inkscape:label="Layer 1">
    <g
       id="g5510">
      <path
         id="path4551"
         d="M 610.48931,315.01788 C 611.79841,383.8038 581.33627,455.23221 522.14741,493.04142 C 491.64159,513.44326 455.74096,523.71922 420.38327,531.54878 C 390.71108,534.19518 363.27114,516.48766 333.56492,519.03561 C 303.95858,515.02584 278.93251,495.40024 256.89019,476.43699 C 170.33051,396.99851 159.08224,252.43694 228.57264,158.60975 C 274.13008,93.77319 359.06242,58.55106 436.83406,76.75944 C 521.57294,94.77688 585.47601,169.93963 603.46134,252.76214 C 608.17915,273.15436 610.49148,294.0908 610.48934,315.01788"
         style="fill:#a7dc5a;fill-opacity:1;fill-rule:nonzero;stroke:#000000;stroke-width:3;stroke-linecap:round;stroke-linejoin:round;marker:none;marker-start:none;marker-mid:none;marker-end:none;stroke-miterlimit:4;stroke-dasharray:none;stroke-dashoffset:0;stroke-opacity:1;visibility:visible;display:inline;overflow:visible;enable-background:accumulate" />
      <path
         sodipodi:type="arc"
         style="opacity:0.84398229;fill:#41a216;fill-opacity:1;fill-rule:nonzero;stroke:#000000;stroke-width:0.07627556;stroke-linecap:round;stroke-linejoin:round;marker:none;marker-start:none;marker-mid:none;marker-end:none;stroke-miterlimit:4;stroke-dasharray:none;stroke-dashoffset:0;stroke-opacity:1;visibility:visible;display:inline;overflow:visible;enable-background:accumulate"
         id="path4553"
         sodipodi:cx="359.64362"
         sodipodi:cy="-183.94504"
         sodipodi:rx="1.1294327"
         sodipodi:ry="5.0017729"
         d="M 360.77305,-183.94504 A 1.1294327,5.0017729 0 1 1 358.51418,-183.94504 A 1.1294327,5.0017729 0 1 1 360.77305,-183.94504 z"
         transform="matrix(31.243999,0,0,5.5012646,-10809.021,1147.3773)" />
      <path
         transform="matrix(9.9412725,0,0,9.9412725,-3155.6517,1993.3142)"
         id="path4555"
         d="M 357.38474,-148.92499 C 357.24912,-149.62393 357.04059,-150.21824 357.24658,-150.93277 C 357.40948,-151.96498 358.62883,-152.58442 358.64871,-153.63707 C 358.66971,-154.90019 359.15795,-155.94177 360.10886,-156.87791 C 360.33349,-158.01428 360.41605,-159.14684 360.14182,-160.37721 C 358.80147,-161.96574 361.19839,-163.54635 360.91043,-165.19292 C 362.42838,-166.47852 360.28521,-167.82062 360.48386,-169.34229 C 362.28215,-171.02542 359.58656,-172.73351 359.6142,-174.31903 C 358.84577,-175.44681 360.37745,-176.01989 359.81403,-177.03752 C 361.24009,-178.41678 359.83178,-180.04307 359.1478,-181.52707 C 359.56771,-182.25653 359.1668,-182.60698 358.67554,-183.19376"
         style="fill:none;fill-rule:evenodd;stroke:#1f6a2b;stroke-width:1.50886118;stroke-linecap:butt;stroke-linejoin:miter;stroke-miterlimit:4;stroke-dasharray:none;stroke-opacity:1;filter:url(#filter5667)" />
      <path
         transform="matrix(9.9412725,0,0,9.9412725,-3155.6517,1993.3142)"
         id="path4557"
         d="M 368.03369,-153.14268 C 368.31787,-154.5688 371.09005,-154.47099 370.79657,-156.04427 C 370.6427,-157.03588 369.76233,-157.87361 370.51169,-159.20975 C 371.20515,-160.20778 371.35683,-161.10066 370.70578,-162.06551 C 369.85821,-163.17332 370.3414,-164.20968 370.93793,-165.26855 C 369.70822,-166.33965 371.29962,-167.72868 369.62665,-168.49962 C 368.87835,-169.39285 370.54127,-170.05103 369.55209,-170.85646 C 369.63981,-172.56602 367.94999,-173.88919 368.00659,-175.56989 C 368.05548,-176.6006 368.41376,-178.27421 366.70609,-178.40804 C 364.79946,-179.33681 365.14664,-181.29172 364.53821,-182.77357 C 364.0733,-182.92269 363.65172,-183.24468 363.51596,-183.72098"
         style="fill:none;fill-rule:evenodd;stroke:#1f6a2b;stroke-width:1.50886118;stroke-linecap:butt;stroke-linejoin:miter;stroke-miterlimit:4;stroke-dasharray:none;stroke-opacity:1;filter:url(#filter5671)" />
      <path
         transform="matrix(9.9412725,0,0,9.9412725,-3155.6517,1993.3142)"
         id="path4559"
         d="M 352.86703,-151.56105 C 353.36257,-152.48805 353.82858,-153.91068 352.32129,-154.50992 C 351.94051,-155.90848 353.04506,-157.16537 352.37665,-158.54659 C 353.11873,-159.66234 351.77944,-160.78812 352.29364,-161.89963 C 352.00947,-163.21392 352.20071,-164.21062 352.38507,-165.47871 C 353.11144,-166.30854 352.16981,-166.99154 352.543,-167.95409 C 352.1388,-169.21695 353.35282,-170.03742 354.07007,-170.71539 C 353.94354,-171.80051 353.34614,-172.45837 354.46146,-173.16611 C 355.04311,-174.10783 355.83696,-175.16969 355.22784,-176.1162 C 356.58163,-176.94899 355.26432,-178.31691 356.32562,-179.36363 C 357.02345,-180.19309 357.52489,-181.04035 358.00562,-181.97446 C 358.22497,-182.06291 358.13482,-182.33274 358.35284,-182.40295"
         style="fill:none;fill-rule:evenodd;stroke:#1f6a2b;stroke-width:1.50886118;stroke-linecap:butt;stroke-linejoin:miter;stroke-miterlimit:4;stroke-dasharray:none;stroke-opacity:1;filter:url(#filter5663)" />
      <path
         transform="matrix(9.9412725,0,0,9.9412725,-3155.6517,1993.3142)"
         id="path4561"
         d="M 354.15781,-183.45737 C 353.1696,-183.16499 351.95902,-183.43451 351.49689,-182.29564 C 350.46685,-181.86358 349.8738,-180.82868 349.18564,-180.09222 C 347.96984,-179.28633 347.73045,-178.10664 346.85672,-176.8736 C 345.0566,-176.33511 346.24574,-174.27961 345.52365,-172.97948 C 345.41345,-171.98365 343.89703,-171.6821 344.6756,-170.64302 C 344.62432,-169.67668 345.4137,-168.2403 344.33157,-167.31465 C 344.57668,-166.51461 344.40073,-165.66102 343.75101,-165.21429 C 344.51822,-163.90334 344.75086,-162.12326 344.04828,-160.81268 C 343.72961,-159.99937 344.71424,-159.34553 344.61533,-158.26863 C 344.94175,-157.49866 344.97504,-156.99441 345.12234,-156.30595"
         style="fill:none;fill-rule:evenodd;stroke:#1f6a2b;stroke-width:1.50886118;stroke-linecap:butt;stroke-linejoin:miter;stroke-miterlimit:4;stroke-dasharray:none;stroke-opacity:1;filter:url(#filter5659)" />
      <path
         transform="matrix(9.9412725,0,0,9.9412725,-3155.6517,1993.3142)"
         id="path4563"
         d="M 354.15781,-185.56622 C 353.18033,-184.99554 352.00204,-185.42172 351.47745,-184.45525 C 350.5366,-184.41314 349.3024,-184.78096 348.52856,-184.58871 C 347.35968,-184.36382 346.16749,-183.46062 346.29865,-182.1123 C 345.45399,-181.65274 344.62113,-181.1283 344.16864,-180.20799 C 343.15511,-179.82149 343.03005,-178.73965 342.41815,-178.12366 C 342.12842,-177.65291 342.51122,-176.28327 341.24094,-176.35255 C 339.58681,-176.03718 340.79055,-174.75972 340.25253,-173.76686 C 338.96294,-173.63507 339.60655,-171.93126 338.72858,-171.35397 C 338.22803,-170.56997 338.04277,-170.12108 338.13516,-169.31648 C 337.35983,-168.35137 338.43787,-167.23726 338.02304,-166.32298"
         style="fill:none;fill-rule:evenodd;stroke:#1f6a2b;stroke-width:1.50886118;stroke-linecap:butt;stroke-linejoin:miter;stroke-miterlimit:4;stroke-dasharray:none;stroke-opacity:1;filter:url(#filter5655)" />
      <path
         transform="matrix(9.9412725,0,0,9.9412725,-3155.6517,1993.3142)"
         id="path4565"
         d="M 366.09753,-186.88425 C 366.83067,-186.19814 366.88975,-184.90677 368.27744,-184.96034 C 368.95203,-184.43142 370.28097,-184.56313 369.86493,-183.509 C 369.35178,-182.70777 370.33378,-182.16571 370.62836,-181.78732 C 370.64482,-180.47852 372.51511,-179.80152 372.3197,-178.49057 C 371.24652,-177.34946 372.5752,-176.50904 373.60806,-175.96593 C 374.24995,-175.30101 375.11484,-174.99156 374.92963,-173.88824 C 374.67576,-172.90131 376.19037,-172.65866 375.43204,-171.6521 C 375.0587,-170.38531 375.84842,-169.3962 376.69519,-168.58612 C 377.70178,-167.72663 375.70991,-166.68639 376.81757,-166.00459 C 377.53196,-165.53385 376.53505,-165.98928 376.42377,-165.79578"
         style="fill:none;fill-rule:evenodd;stroke:#1f6a2b;stroke-width:1.50886118;stroke-linecap:butt;stroke-linejoin:miter;stroke-miterlimit:4;stroke-dasharray:none;stroke-opacity:1;filter:url(#filter5675)" />
      <path
         transform="matrix(9.9412725,0,0,9.9412725,-3155.6517,1993.3142)"
         id="path4567"
         d="M 355.77127,-188.20229 C 355.27674,-187.89972 354.574,-188.14611 354.02072,-188.21864 C 353.53258,-188.31956 353.01472,-188.5031 352.48331,-188.53922 C 351.9648,-188.97937 351.32736,-188.83695 350.68304,-189.0352 C 350.11665,-188.85795 349.76126,-188.27076 349.11044,-188.32372 C 348.0169,-188.82926 347.32334,-187.33527 346.27094,-187.63892 C 345.87449,-187.51023 344.9239,-187.74359 344.8559,-187.59947 C 344.93795,-187.38617 344.78179,-187.33584 344.79965,-187.14786"
         style="fill:none;fill-rule:evenodd;stroke:#1f6a2b;stroke-width:1.50886118;stroke-linecap:butt;stroke-linejoin:miter;stroke-miterlimit:4;stroke-dasharray:none;stroke-opacity:1;filter:url(#filter4586)" />
    </g>
    <g
       id="g2667"
       transform="translate(-325.71428,362.85715)">
      <path
         id="path4672"
         d="M 1003.8117,5.6815505 C 992.45745,17.8858 978.31871,27.244675 966.54073,39.111658 C 909.41607,92.784142 858.00048,153.79213 790.91752,195.72904 C 775.34935,201.61611 762.41819,178.8017 769.79679,166.23975 C 811.98741,79.492858 872.47846,3.6748184 929.86285,-73.250059 C 938.32081,-84.970415 955.34728,-85.16938 966.04191,-76.474956 C 982.5148,-64.746544 997.03585,-50.021929 1008.8221,-33.610563 C 1016.2605,-21.268057 1013.1159,-4.7740054 1003.8117,5.6815503 L 1003.8117,5.6815505 z"
         style="fill:#f1951d;fill-opacity:1;fill-rule:nonzero;stroke:#000000;stroke-width:1.99999988;stroke-linecap:round;stroke-linejoin:round;marker:none;marker-start:none;marker-mid:none;marker-end:none;stroke-miterlimit:4;stroke-dashoffset:0;stroke-opacity:1;visibility:visible;display:inline;overflow:visible;enable-background:accumulate" />
      <path
         sodipodi:nodetypes="csssssc"
         id="path4674"
         d="M 907.98196,-37.59275 C 910.82625,-31.834397 909.79404,-30.95471 913.89302,-25.533658 C 916.24608,-22.421648 919.6942,-14.052982 924.79332,-7.6018053 C 929.22649,-1.9931705 933.78455,4.1834984 938.50722,7.3432569 C 944.75169,11.52118 950.57021,16.365239 955.28457,19.327455 C 962.37657,23.783633 963.36904,25.585375 968.8023,25.87503 C 972.31571,26.062336 974.25284,25.367598 976.92362,25.221378"
         style="fill:none;fill-rule:evenodd;stroke:#000000;stroke-width:0.99999994px;stroke-linecap:butt;stroke-linejoin:miter;stroke-opacity:1" />
      <path
         sodipodi:nodetypes="cssssssssc"
         id="path4676"
         d="M 868.91715,11.95689 C 868.92461,17.223236 870.29642,18.891207 871.57069,21.947879 C 873.27153,26.027782 873.54922,28.048011 876.84521,31.17632 C 881.23018,35.338206 883.9655,38.229496 887.58759,42.015191 C 890.75915,45.330005 892.12689,45.980118 896.02983,47.53028 C 900.52771,49.316735 903.57841,51.975253 907.28768,54.26357 C 909.49762,55.626924 914.0592,56.892815 916.39364,56.834737 C 920.36547,56.73593 920.73859,59.540366 923.71042,59.153686 C 925.82611,58.878397 929.86484,59.263902 932.12251,59.867954 C 937.75225,61.374214 939.86106,61.609946 942.7915,58.975279"
         style="fill:none;fill-rule:evenodd;stroke:#000000;stroke-width:0.99999994px;stroke-linecap:butt;stroke-linejoin:miter;stroke-opacity:1" />
      <path
         sodipodi:nodetypes="csssssss"
         id="path4678"
         d="M 888.21864,117.26501 C 888.47401,117.24863 881.15213,118.54967 874.54361,121.43558 C 870.73287,123.09971 860.94097,121.84449 857.67779,119.43697 C 853.9765,116.70617 849.64335,116.47738 846.04395,111.99051 C 843.38178,108.67199 839.55906,103.8288 837.45206,99.292386 C 835.3391,94.743141 835.53058,96.364957 834.17494,88.709229 C 833.16448,83.00276 832.00621,81.146176 831.26203,77.540015 C 830.56895,74.181468 831.79445,69.817796 829.62689,65.413719"
         style="fill:none;fill-rule:evenodd;stroke:#000000;stroke-width:0.99999994px;stroke-linecap:butt;stroke-linejoin:miter;stroke-opacity:1" />
      <path
         id="path4680"
         d="M 800.2724,110.44366 C 798.196,107.44039 801.25631,117.95774 803.33271,120.96102 C 806.53474,125.59246 808.17169,130.80462 812.55074,134.6524 C 816.86037,138.43917 817.99378,141.5841 820.83147,143.04676 C 823.85975,144.60768 827.21092,144.72515 829.91493,145.43657 C 834.96048,146.76401 837.64119,145.98064 842.00073,148.22775 C 845.18721,149.87022 848.79778,148.30268 852.04015,146.98411 C 852.6202,146.74822 853.20021,146.51237 853.78026,146.27648"
         style="fill:none;fill-rule:evenodd;stroke:#000000;stroke-width:0.99999994px;stroke-linecap:butt;stroke-linejoin:miter;stroke-opacity:1" />
      <path
         id="path4682"
         style="fill:#14ac22;fill-opacity:1;fill-rule:evenodd;stroke:#000000;stroke-width:0.8872816px;stroke-linecap:butt;stroke-linejoin:miter;stroke-opacity:1"
         d="M 989.27213,-56.041051 C 990.04174,-55.959035 981.44561,-64.573935 981.71183,-64.28662 C 983.20841,-64.948938 987.27802,-69.608482 990.17089,-73.913657 C 992.67872,-77.645835 990.90389,-79.399662 990.33357,-82.300623 C 989.67104,-85.67054 993.44641,-89.138373 993.86235,-91.994827 C 994.49168,-96.316678 993.48523,-98.166812 993.50949,-101.68779 C 993.53374,-105.20876 992.59098,-109.8977 993.0465,-110.62451 C 993.50201,-111.35132 994.9755,-113.19449 994.22276,-113.85591 C 991.80026,-115.9845 989.35255,-115.03744 992.67611,-117.7739 C 996.4564,-120.8864 995.02835,-119.119 996.55776,-117.77514 C 997.97174,-116.53271 1001.2486,-113.4008 1001.2328,-111.10836 C 1001.2178,-108.94189 1001.5348,-104.30665 1001.8059,-102.92785 C 1002.2258,-100.79208 1001.7803,-97.905859 1001.4405,-95.572002 C 1001.0771,-93.076869 1002.8692,-90.88895 1000.3393,-88.009683 C 998.01954,-85.369638 993.28268,-81.371154 996.71789,-80.102828 C 1000.7532,-78.612932 998.4698,-82.72752 1000.6346,-85.191218 C 1002.2156,-86.990502 1005.4164,-91.610388 1007.2917,-92.136624 C 1009.6992,-92.812178 1014.4694,-95.284735 1016.0461,-98.945201 C 1017.7382,-102.87353 1017.6903,-104.60187 1020.9363,-108.29611 C 1024.145,-111.94781 1026.6915,-114.77765 1029.1576,-113.86711 C 1030.6894,-113.30158 1033.5558,-112.70326 1033.5373,-110.01878 C 1033.5169,-107.06053 1034.9196,-105.29694 1030.1186,-101.08081 C 1028.2957,-99.479893 1024.099,-94.974373 1021.9899,-93.722473 C 1019.0733,-91.991164 1014.9763,-92.76736 1012.4247,-91.038347 C 1010.2665,-89.575895 1007.0535,-86.187278 1004.1859,-82.923772 C 1000.9448,-79.235132 995.11904,-76.440989 995.08364,-71.302917 C 995.05201,-66.711341 988.85095,-60.464264 988.92453,-60.507947 C 990.15086,-60.852063 991.38206,-60.815278 992.60348,-61.540306 C 994.04157,-62.393947 998.72388,-67.35946 999.77616,-67.17971 C 1005.2176,-66.250173 1004.0835,-67.300394 1009.5441,-68.832726 C 1010.0346,-68.970373 1010.5271,-68.955653 1011.0157,-69.245667 C 1011.7882,-69.704218 1012.5607,-70.162765 1013.3332,-70.621316 C 1015.2275,-71.745777 1018.7248,-73.222273 1021.9599,-74.130088 C 1025.4752,-75.116522 1027.2711,-78.364093 1031.0096,-78.120208 C 1035.211,-77.846111 1037.2682,-77.700456 1041.716,-78.948574 C 1045.1011,-79.898472 1045.7574,-81.024298 1048.8887,-84.587982 C 1051.3642,-87.405265 1053.6799,-89.704293 1055.0303,-92.839383 C 1056.083,-95.28335 1058.6684,-98.454897 1061.4672,-98.272306 C 1062.937,-98.176425 1067.3743,-98.50192 1067.8515,-96.074507 C 1068.3566,-93.505277 1068.5665,-87.733407 1066.5126,-84.456143 C 1064.9797,-82.010278 1062.0523,-78.584502 1059.4325,-77.029398 C 1057.0355,-75.606572 1053.4734,-74.622308 1050.603,-74.551736 C 1048.482,-74.499586 1042.082,-70.781601 1043.1813,-70.837118 C 1042.3476,-69.89378 1041.386,-67.613314 1039.6413,-67.123746 C 1035.988,-66.098566 1032.6456,-63.560884 1029.2302,-63.476912 C 1026.2636,-63.403978 1023.6798,-63.773026 1020.9513,-64.780414 C 1018.6718,-65.622034 1015.1753,-68.236905 1012.1569,-67.389914 C 1009.5691,-66.663744 1005.9242,-64.190278 1003.1072,-63.39979 C 1000.7045,-62.725569 998.36587,-61.736794 995.95206,-60.303963 C 993.86051,-59.062429 989.70835,-57.053773 989.27213,-56.041051 z"
         sodipodi:nodetypes="ccsssccssssssssssssssssssscssssssssssssssscssssssc" />
      <path
         sodipodi:nodetypes="ccsssccssssssssssssssssssscssssssssssssssscssssssc"
         d="M 995.94588,-49.859089 C 997.08628,-49.636586 983.29755,-63.145206 983.7274,-62.697471 C 985.83283,-63.441485 991.16783,-69.557604 994.82465,-75.326969 C 997.99476,-80.328462 995.15122,-83.081943 993.91837,-87.313489 C 992.48625,-92.229093 997.55221,-96.679046 997.77254,-100.71223 C 998.10591,-106.81448 996.37663,-109.60095 995.93154,-114.63909 C 995.48645,-119.67723 993.46309,-126.5197 994.03221,-127.49819 C 994.60134,-128.47667 996.51168,-130.91464 995.31694,-131.96443 C 991.47195,-135.34293 988.00984,-134.32105 992.51275,-137.78547 C 997.63445,-141.72599 995.78042,-139.39032 998.20791,-137.25734 C 1000.4522,-135.28536 1005.6876,-130.35364 1005.9774,-127.07341 C 1006.2513,-123.97343 1007.3491,-117.29327 1007.9351,-115.28207 C 1008.8427,-112.16667 1008.5832,-108.0949 1008.4031,-104.79961 C 1008.2107,-101.27659 1011.1388,-97.899204 1007.8198,-94.121956 C 1004.7766,-90.658539 998.37234,-85.580038 1003.5858,-83.295041 C 1009.71,-80.610868 1005.7979,-86.814003 1008.6379,-90.046074 C 1010.712,-92.406519 1014.7777,-98.584443 1017.4573,-99.081912 C 1020.8974,-99.720541 1027.559,-102.60961 1029.3727,-107.63554 C 1031.3191,-113.02925 1031.0129,-115.51048 1035.2713,-120.35687 C 1039.4807,-125.14746 1042.8307,-128.85166 1046.5734,-127.21126 C 1048.898,-126.1924 1053.1855,-124.94439 1053.5248,-121.10319 C 1053.8988,-116.87025 1056.1976,-114.1536 1049.729,-108.77223 C 1047.2728,-106.72885 1041.7303,-100.85063 1038.8067,-99.346025 C 1034.7637,-97.265254 1028.6464,-98.935955 1025.1386,-96.808625 C 1022.1717,-95.009269 1017.9199,-90.59597 1014.158,-86.314651 C 1009.9061,-81.475607 1001.7398,-78.270181 1002.3893,-70.918154 C 1002.9697,-64.348109 994.72406,-56.249888 994.82606,-56.302386 C 996.57839,-56.627692 998.38989,-56.406938 1000.083,-57.278312 C 1002.0765,-58.304263 1008.2687,-64.774829 1009.8372,-64.3738 C 1017.9481,-62.300005 1016.1406,-63.958582 1023.9435,-65.407148 C 1024.6445,-65.537273 1025.3691,-65.448966 1026.0463,-65.797518 C 1027.1172,-66.348624 1028.188,-66.899734 1029.2588,-67.45084 C 1031.8848,-68.802272 1036.8146,-70.438921 1041.4374,-71.297111 C 1046.4605,-72.229625 1048.6522,-76.634429 1054.1707,-75.774861 C 1060.3727,-74.80883 1063.4109,-74.319435 1069.7666,-75.499333 C 1074.6037,-76.397307 1075.4129,-77.919702 1079.5208,-82.594821 C 1082.7684,-86.29075 1085.8522,-89.266442 1087.4056,-93.571006 C 1088.6165,-96.926654 1091.9769,-101.11483 1096.1084,-100.4713 C 1098.2781,-100.13336 1104.7442,-99.993653 1105.7758,-96.452856 C 1106.8677,-92.705193 1107.9636,-84.412186 1105.3973,-80.000092 C 1103.4821,-76.707294 1099.6546,-72.201789 1096.023,-70.332783 C 1092.7003,-68.622764 1087.6081,-67.69976 1083.4063,-67.990564 C 1080.3013,-68.205457 1071.4185,-63.755632 1073.024,-63.685043 C 1071.9294,-62.448165 1070.8298,-59.314199 1068.3368,-58.851388 C 1063.1164,-57.88225 1058.5588,-54.705 1053.559,-55.051033 C 1049.2163,-55.351589 1045.3748,-56.232745 1041.2339,-58.047639 C 1037.7744,-59.563894 1032.2872,-63.785287 1027.9741,-62.984592 C 1024.2763,-62.298117 1019.2661,-59.254124 1015.2407,-58.506845 C 1011.8075,-57.869476 1008.511,-56.772986 1005.165,-55.050937 C 1002.2657,-53.5588 996.44766,-51.249582 995.94588,-49.859089 z"
         style="fill:#14ac22;fill-opacity:1;fill-rule:evenodd;stroke:#000000;stroke-width:0.8872816px;stroke-linecap:butt;stroke-linejoin:miter;stroke-opacity:1"
         id="path4684" />
    </g>
    <g
       id="g2692"
       transform="translate(-272.85714,394.28571)">
      <path
         id="path2694"
         d="M 1003.8117,5.6815505 C 992.45745,17.8858 978.31871,27.244675 966.54073,39.111658 C 909.41607,92.784142 858.00048,153.79213 790.91752,195.72904 C 775.34935,201.61611 762.41819,178.8017 769.79679,166.23975 C 811.98741,79.492858 872.47846,3.6748184 929.86285,-73.250059 C 938.32081,-84.970415 955.34728,-85.16938 966.04191,-76.474956 C 982.5148,-64.746544 997.03585,-50.021929 1008.8221,-33.610563 C 1016.2605,-21.268057 1013.1159,-4.7740054 1003.8117,5.6815503 L 1003.8117,5.6815505 z"
         style="fill:#f1951d;fill-opacity:1;fill-rule:nonzero;stroke:#000000;stroke-width:1.99999988;stroke-linecap:round;stroke-linejoin:round;marker:none;marker-start:none;marker-mid:none;marker-end:none;stroke-miterlimit:4;stroke-dashoffset:0;stroke-opacity:1;visibility:visible;display:inline;overflow:visible;enable-background:accumulate" />
      <path
         sodipodi:nodetypes="csssssc"
         id="path2696"
         d="M 907.98196,-37.59275 C 910.82625,-31.834397 909.79404,-30.95471 913.89302,-25.533658 C 916.24608,-22.421648 919.6942,-14.052982 924.79332,-7.6018053 C 929.22649,-1.9931705 933.78455,4.1834984 938.50722,7.3432569 C 944.75169,11.52118 950.57021,16.365239 955.28457,19.327455 C 962.37657,23.783633 963.36904,25.585375 968.8023,25.87503 C 972.31571,26.062336 974.25284,25.367598 976.92362,25.221378"
         style="fill:none;fill-rule:evenodd;stroke:#000000;stroke-width:0.99999994px;stroke-linecap:butt;stroke-linejoin:miter;stroke-opacity:1" />
      <path
         sodipodi:nodetypes="cssssssssc"
         id="path2698"
         d="M 868.91715,11.95689 C 868.92461,17.223236 870.29642,18.891207 871.57069,21.947879 C 873.27153,26.027782 873.54922,28.048011 876.84521,31.17632 C 881.23018,35.338206 883.9655,38.229496 887.58759,42.015191 C 890.75915,45.330005 892.12689,45.980118 896.02983,47.53028 C 900.52771,49.316735 903.57841,51.975253 907.28768,54.26357 C 909.49762,55.626924 914.0592,56.892815 916.39364,56.834737 C 920.36547,56.73593 920.73859,59.540366 923.71042,59.153686 C 925.82611,58.878397 929.86484,59.263902 932.12251,59.867954 C 937.75225,61.374214 939.86106,61.609946 942.7915,58.975279"
         style="fill:none;fill-rule:evenodd;stroke:#000000;stroke-width:0.99999994px;stroke-linecap:butt;stroke-linejoin:miter;stroke-opacity:1" />
      <path
         sodipodi:nodetypes="csssssss"
         id="path2700"
         d="M 888.21864,117.26501 C 888.47401,117.24863 881.15213,118.54967 874.54361,121.43558 C 870.73287,123.09971 860.94097,121.84449 857.67779,119.43697 C 853.9765,116.70617 849.64335,116.47738 846.04395,111.99051 C 843.38178,108.67199 839.55906,103.8288 837.45206,99.292386 C 835.3391,94.743141 835.53058,96.364957 834.17494,88.709229 C 833.16448,83.00276 832.00621,81.146176 831.26203,77.540015 C 830.56895,74.181468 831.79445,69.817796 829.62689,65.413719"
         style="fill:none;fill-rule:evenodd;stroke:#000000;stroke-width:0.99999994px;stroke-linecap:butt;stroke-linejoin:miter;stroke-opacity:1" />
      <path
         id="path2702"
         d="M 800.2724,110.44366 C 798.196,107.44039 801.25631,117.95774 803.33271,120.96102 C 806.53474,125.59246 808.17169,130.80462 812.55074,134.6524 C 816.86037,138.43917 817.99378,141.5841 820.83147,143.04676 C 823.85975,144.60768 827.21092,144.72515 829.91493,145.43657 C 834.96048,146.76401 837.64119,145.98064 842.00073,148.22775 C 845.18721,149.87022 848.79778,148.30268 852.04015,146.98411 C 852.6202,146.74822 853.20021,146.51237 853.78026,146.27648"
         style="fill:none;fill-rule:evenodd;stroke:#000000;stroke-width:0.99999994px;stroke-linecap:butt;stroke-linejoin:miter;stroke-opacity:1" />
      <path
         id="path2704"
         style="fill:#14ac22;fill-opacity:1;fill-rule:evenodd;stroke:#000000;stroke-width:0.8872816px;stroke-linecap:butt;stroke-linejoin:miter;stroke-opacity:1"
         d="M 989.27213,-56.041051 C 990.04174,-55.959035 981.44561,-64.573935 981.71183,-64.28662 C 983.20841,-64.948938 987.27802,-69.608482 990.17089,-73.913657 C 992.67872,-77.645835 990.90389,-79.399662 990.33357,-82.300623 C 989.67104,-85.67054 993.44641,-89.138373 993.86235,-91.994827 C 994.49168,-96.316678 993.48523,-98.166812 993.50949,-101.68779 C 993.53374,-105.20876 992.59098,-109.8977 993.0465,-110.62451 C 993.50201,-111.35132 994.9755,-113.19449 994.22276,-113.85591 C 991.80026,-115.9845 989.35255,-115.03744 992.67611,-117.7739 C 996.4564,-120.8864 995.02835,-119.119 996.55776,-117.77514 C 997.97174,-116.53271 1001.2486,-113.4008 1001.2328,-111.10836 C 1001.2178,-108.94189 1001.5348,-104.30665 1001.8059,-102.92785 C 1002.2258,-100.79208 1001.7803,-97.905859 1001.4405,-95.572002 C 1001.0771,-93.076869 1002.8692,-90.88895 1000.3393,-88.009683 C 998.01954,-85.369638 993.28268,-81.371154 996.71789,-80.102828 C 1000.7532,-78.612932 998.4698,-82.72752 1000.6346,-85.191218 C 1002.2156,-86.990502 1005.4164,-91.610388 1007.2917,-92.136624 C 1009.6992,-92.812178 1014.4694,-95.284735 1016.0461,-98.945201 C 1017.7382,-102.87353 1017.6903,-104.60187 1020.9363,-108.29611 C 1024.145,-111.94781 1026.6915,-114.77765 1029.1576,-113.86711 C 1030.6894,-113.30158 1033.5558,-112.70326 1033.5373,-110.01878 C 1033.5169,-107.06053 1034.9196,-105.29694 1030.1186,-101.08081 C 1028.2957,-99.479893 1024.099,-94.974373 1021.9899,-93.722473 C 1019.0733,-91.991164 1014.9763,-92.76736 1012.4247,-91.038347 C 1010.2665,-89.575895 1007.0535,-86.187278 1004.1859,-82.923772 C 1000.9448,-79.235132 995.11904,-76.440989 995.08364,-71.302917 C 995.05201,-66.711341 988.85095,-60.464264 988.92453,-60.507947 C 990.15086,-60.852063 991.38206,-60.815278 992.60348,-61.540306 C 994.04157,-62.393947 998.72388,-67.35946 999.77616,-67.17971 C 1005.2176,-66.250173 1004.0835,-67.300394 1009.5441,-68.832726 C 1010.0346,-68.970373 1010.5271,-68.955653 1011.0157,-69.245667 C 1011.7882,-69.704218 1012.5607,-70.162765 1013.3332,-70.621316 C 1015.2275,-71.745777 1018.7248,-73.222273 1021.9599,-74.130088 C 1025.4752,-75.116522 1027.2711,-78.364093 1031.0096,-78.120208 C 1035.211,-77.846111 1037.2682,-77.700456 1041.716,-78.948574 C 1045.1011,-79.898472 1045.7574,-81.024298 1048.8887,-84.587982 C 1051.3642,-87.405265 1053.6799,-89.704293 1055.0303,-92.839383 C 1056.083,-95.28335 1058.6684,-98.454897 1061.4672,-98.272306 C 1062.937,-98.176425 1067.3743,-98.50192 1067.8515,-96.074507 C 1068.3566,-93.505277 1068.5665,-87.733407 1066.5126,-84.456143 C 1064.9797,-82.010278 1062.0523,-78.584502 1059.4325,-77.029398 C 1057.0355,-75.606572 1053.4734,-74.622308 1050.603,-74.551736 C 1048.482,-74.499586 1042.082,-70.781601 1043.1813,-70.837118 C 1042.3476,-69.89378 1041.386,-67.613314 1039.6413,-67.123746 C 1035.988,-66.098566 1032.6456,-63.560884 1029.2302,-63.476912 C 1026.2636,-63.403978 1023.6798,-63.773026 1020.9513,-64.780414 C 1018.6718,-65.622034 1015.1753,-68.236905 1012.1569,-67.389914 C 1009.5691,-66.663744 1005.9242,-64.190278 1003.1072,-63.39979 C 1000.7045,-62.725569 998.36587,-61.736794 995.95206,-60.303963 C 993.86051,-59.062429 989.70835,-57.053773 989.27213,-56.041051 z"
         sodipodi:nodetypes="ccsssccssssssssssssssssssscssssssssssssssscssssssc" />
      <path
         sodipodi:nodetypes="ccsssccssssssssssssssssssscssssssssssssssscssssssc"
         d="M 995.94588,-49.859089 C 997.08628,-49.636586 983.29755,-63.145206 983.7274,-62.697471 C 985.83283,-63.441485 991.16783,-69.557604 994.82465,-75.326969 C 997.99476,-80.328462 995.15122,-83.081943 993.91837,-87.313489 C 992.48625,-92.229093 997.55221,-96.679046 997.77254,-100.71223 C 998.10591,-106.81448 996.37663,-109.60095 995.93154,-114.63909 C 995.48645,-119.67723 993.46309,-126.5197 994.03221,-127.49819 C 994.60134,-128.47667 996.51168,-130.91464 995.31694,-131.96443 C 991.47195,-135.34293 988.00984,-134.32105 992.51275,-137.78547 C 997.63445,-141.72599 995.78042,-139.39032 998.20791,-137.25734 C 1000.4522,-135.28536 1005.6876,-130.35364 1005.9774,-127.07341 C 1006.2513,-123.97343 1007.3491,-117.29327 1007.9351,-115.28207 C 1008.8427,-112.16667 1008.5832,-108.0949 1008.4031,-104.79961 C 1008.2107,-101.27659 1011.1388,-97.899204 1007.8198,-94.121956 C 1004.7766,-90.658539 998.37234,-85.580038 1003.5858,-83.295041 C 1009.71,-80.610868 1005.7979,-86.814003 1008.6379,-90.046074 C 1010.712,-92.406519 1014.7777,-98.584443 1017.4573,-99.081912 C 1020.8974,-99.720541 1027.559,-102.60961 1029.3727,-107.63554 C 1031.3191,-113.02925 1031.0129,-115.51048 1035.2713,-120.35687 C 1039.4807,-125.14746 1042.8307,-128.85166 1046.5734,-127.21126 C 1048.898,-126.1924 1053.1855,-124.94439 1053.5248,-121.10319 C 1053.8988,-116.87025 1056.1976,-114.1536 1049.729,-108.77223 C 1047.2728,-106.72885 1041.7303,-100.85063 1038.8067,-99.346025 C 1034.7637,-97.265254 1028.6464,-98.935955 1025.1386,-96.808625 C 1022.1717,-95.009269 1017.9199,-90.59597 1014.158,-86.314651 C 1009.9061,-81.475607 1001.7398,-78.270181 1002.3893,-70.918154 C 1002.9697,-64.348109 994.72406,-56.249888 994.82606,-56.302386 C 996.57839,-56.627692 998.38989,-56.406938 1000.083,-57.278312 C 1002.0765,-58.304263 1008.2687,-64.774829 1009.8372,-64.3738 C 1017.9481,-62.300005 1016.1406,-63.958582 1023.9435,-65.407148 C 1024.6445,-65.537273 1025.3691,-65.448966 1026.0463,-65.797518 C 1027.1172,-66.348624 1028.188,-66.899734 1029.2588,-67.45084 C 1031.8848,-68.802272 1036.8146,-70.438921 1041.4374,-71.297111 C 1046.4605,-72.229625 1048.6522,-76.634429 1054.1707,-75.774861 C 1060.3727,-74.80883 1063.4109,-74.319435 1069.7666,-75.499333 C 1074.6037,-76.397307 1075.4129,-77.919702 1079.5208,-82.594821 C 1082.7684,-86.29075 1085.8522,-89.266442 1087.4056,-93.571006 C 1088.6165,-96.926654 1091.9769,-101.11483 1096.1084,-100.4713 C 1098.2781,-100.13336 1104.7442,-99.993653 1105.7758,-96.452856 C 1106.8677,-92.705193 1107.9636,-84.412186 1105.3973,-80.000092 C 1103.4821,-76.707294 1099.6546,-72.201789 1096.023,-70.332783 C 1092.7003,-68.622764 1087.6081,-67.69976 1083.4063,-67.990564 C 1080.3013,-68.205457 1071.4185,-63.755632 1073.024,-63.685043 C 1071.9294,-62.448165 1070.8298,-59.314199 1068.3368,-58.851388 C 1063.1164,-57.88225 1058.5588,-54.705 1053.559,-55.051033 C 1049.2163,-55.351589 1045.3748,-56.232745 1041.2339,-58.047639 C 1037.7744,-59.563894 1032.2872,-63.785287 1027.9741,-62.984592 C 1024.2763,-62.298117 1019.2661,-59.254124 1015.2407,-58.506845 C 1011.8075,-57.869476 1008.511,-56.772986 1005.165,-55.050937 C 1002.2657,-53.5588 996.44766,-51.249582 995.94588,-49.859089 z"
         style="fill:#14ac22;fill-opacity:1;fill-rule:evenodd;stroke:#000000;stroke-width:0.8872816px;stroke-linecap:butt;stroke-linejoin:miter;stroke-opacity:1"
         id="path2706" />
    </g>
    <g
       id="g2814"
       transform="translate(237.14286,444.28572)">
      <path
         id="path2796"
         d="M 59.54039,-2.5431032 C 59.958722,14.775599 48.46426,30.279407 33.689532,38.332644 C 22.106486,44.869121 9.0558847,48.803114 -4.1179733,50.342689 C -12.419392,50.190832 -19.926558,44.42766 -28.429747,46.576431 C -37.875674,47.941773 -47.735089,50.946966 -57.062386,47.206791 C -77.277787,40.896125 -97.354937,27.15391 -103.69357,5.9887564 C -108.987,-11.038562 -101.73736,-29.816942 -88.720528,-41.334503 C -67.357887,-60.604915 -36.689744,-66.497501 -8.7625244,-62.9746 C 15.864083,-59.732898 41.391172,-47.78764 53.756002,-25.25136 C 57.484404,-18.29761 59.561079,-10.445404 59.540391,-2.5431033 L 59.54039,-2.5431032 z"
         style="fill:url(#radialGradient2819);fill-opacity:1;fill-rule:nonzero;stroke:#000000;stroke-width:2.00000024;stroke-linecap:round;stroke-linejoin:round;marker:none;marker-start:none;marker-mid:none;marker-end:none;stroke-miterlimit:4;stroke-dashoffset:0;stroke-opacity:1;visibility:visible;display:inline;overflow:visible;enable-background:accumulate" />
      <path
         id="path2798"
         d="M 20.822323,-45.587147 C 13.720225,-44.610469 7.1312535,-47.836454 0.47998938,-49.716022 C -4.2647004,-51.236441 -9.1144469,-52.54122 -13.575131,-54.811822 C -20.500799,-52.544162 -27.327765,-49.854663 -33.442141,-45.828124 C -36.658801,-43.900625 -40.043132,-42.256034 -43.521596,-40.858281 C -39.170818,-45.695296 -36.612295,-51.966914 -31.477794,-56.12661 C -30.163447,-57.462152 -27.272529,-59.157647 -30.708551,-59.193754 C -37.023965,-60.607268 -43.645153,-62.124344 -50.040295,-60.21895 C -54.188264,-59.104336 -58.559518,-59.031545 -62.792745,-59.655577 C -56.575723,-59.521234 -50.60232,-61.33874 -44.822992,-63.424819 C -37.993742,-66.033784 -30.605934,-65.809815 -23.432814,-65.49337 C -20.948388,-66.727186 -18.323161,-70.109832 -14.874055,-68.242137 C -11.673008,-67.202462 -8.8187143,-65.913419 -5.9554986,-64.50746 C -2.8272618,-66.679204 1.1936235,-64.391035 4.9054713,-65.038322 C 11.522522,-65.135523 18.278566,-64.704126 24.642622,-62.798372 C 29.225532,-61.415805 30.301073,-56.250314 32.405357,-52.573992 C 33.272257,-50.646732 34.971583,-47.791166 35.354504,-46.429391 C 31.59813,-48.797619 28.541028,-52.034439 25.507347,-55.209344 C 21.669257,-56.547143 17.53973,-57.096742 14.099469,-59.546734 C 10.805653,-61.00159 7.158635,-59.451006 3.7288799,-59.395077 C 2.0133495,-59.246081 1.0198221,-59.109463 3.2593573,-58.674162 C 8.9207178,-57.145685 12.902846,-52.593686 17.404268,-49.139058 C 18.621358,-48.03462 19.78994,-46.86805 20.822323,-45.587147 z"
         style="fill:#11b423;fill-opacity:0.97340423;fill-rule:nonzero;stroke:#000000;stroke-width:2.00000024;stroke-linecap:round;stroke-linejoin:round;marker:none;marker-start:none;marker-mid:none;marker-end:none;stroke-miterlimit:4;stroke-dashoffset:0;stroke-opacity:1;visibility:visible;display:inline;overflow:visible;enable-background:accumulate" />
      <path
         id="path2800"
         d="M 37.795635,-90.065346 C 35.859284,-89.764539 34.022679,-88.005473 31.854408,-87.587848 C 28.215948,-86.709601 23.702789,-86.874117 20.98865,-89.780045 C 19.382189,-90.053154 22.832576,-92.473523 23.894663,-92.710621 C 26.961719,-94.049101 30.348811,-94.354583 33.645884,-94.384496 C 35.946903,-94.214135 39.319435,-93.028538 37.795637,-90.065349 L 37.795635,-90.065346 z M 37.809181,-90.022484 C 35.691787,-89.389933 34.442697,-86.720268 32.338108,-85.663491 C 22.881997,-79.128753 11.216714,-76.725801 1.8653028,-70.014215 C -0.68704318,-68.226051 -2.7632563,-65.783374 -3.9726722,-62.902836 C -7.0360476,-58.415351 -13.550846,-57.509826 -18.316895,-59.552064 C -20.212512,-60.18254 -22.047658,-62.485291 -20.466611,-64.34195 C -17.506893,-69.682711 -11.723578,-72.443552 -6.4509026,-75.014364 C 1.1902601,-78.675014 9.459884,-81.286897 16.270342,-86.469411 C 17.8766,-87.279737 19.359418,-90.656503 20.876656,-89.69732 C 22.356708,-89.117058 23.769815,-87.10377 25.830019,-87.10618 C 29.491038,-86.421766 33.358907,-87.512953 36.288729,-89.764858 C 36.808675,-89.944402 37.471126,-89.290038 37.80918,-90.022484 L 37.809181,-90.022484 z"
         style="fill:#11b422;fill-opacity:0.97647059;fill-rule:nonzero;stroke:#000000;stroke-width:0.80522847;stroke-linecap:round;stroke-linejoin:round;marker:none;marker-start:none;marker-mid:none;marker-end:none;stroke-miterlimit:4;stroke-dashoffset:0;stroke-opacity:1;visibility:visible;display:inline;overflow:visible;enable-background:accumulate" />
    </g>
    <g
       transform="translate(-275.71428,437.14286)"
       id="g2676">
      <path
         style="fill:#f1951d;fill-opacity:1;fill-rule:nonzero;stroke:#000000;stroke-width:1.99999988;stroke-linecap:round;stroke-linejoin:round;marker:none;marker-start:none;marker-mid:none;marker-end:none;stroke-miterlimit:4;stroke-dashoffset:0;stroke-opacity:1;visibility:visible;display:inline;overflow:visible;enable-background:accumulate"
         d="M 1003.8117,5.6815505 C 992.45745,17.8858 978.31871,27.244675 966.54073,39.111658 C 909.41607,92.784142 858.00048,153.79213 790.91752,195.72904 C 775.34935,201.61611 762.41819,178.8017 769.79679,166.23975 C 811.98741,79.492858 872.47846,3.6748184 929.86285,-73.250059 C 938.32081,-84.970415 955.34728,-85.16938 966.04191,-76.474956 C 982.5148,-64.746544 997.03585,-50.021929 1008.8221,-33.610563 C 1016.2605,-21.268057 1013.1159,-4.7740054 1003.8117,5.6815503 L 1003.8117,5.6815505 z"
         id="path2678" />
      <path
         style="fill:none;fill-rule:evenodd;stroke:#000000;stroke-width:0.99999994px;stroke-linecap:butt;stroke-linejoin:miter;stroke-opacity:1"
         d="M 907.98196,-37.59275 C 910.82625,-31.834397 909.79404,-30.95471 913.89302,-25.533658 C 916.24608,-22.421648 919.6942,-14.052982 924.79332,-7.6018053 C 929.22649,-1.9931705 933.78455,4.1834984 938.50722,7.3432569 C 944.75169,11.52118 950.57021,16.365239 955.28457,19.327455 C 962.37657,23.783633 963.36904,25.585375 968.8023,25.87503 C 972.31571,26.062336 974.25284,25.367598 976.92362,25.221378"
         id="path2680"
         sodipodi:nodetypes="csssssc" />
      <path
         style="fill:none;fill-rule:evenodd;stroke:#000000;stroke-width:0.99999994px;stroke-linecap:butt;stroke-linejoin:miter;stroke-opacity:1"
         d="M 868.91715,11.95689 C 868.92461,17.223236 870.29642,18.891207 871.57069,21.947879 C 873.27153,26.027782 873.54922,28.048011 876.84521,31.17632 C 881.23018,35.338206 883.9655,38.229496 887.58759,42.015191 C 890.75915,45.330005 892.12689,45.980118 896.02983,47.53028 C 900.52771,49.316735 903.57841,51.975253 907.28768,54.26357 C 909.49762,55.626924 914.0592,56.892815 916.39364,56.834737 C 920.36547,56.73593 920.73859,59.540366 923.71042,59.153686 C 925.82611,58.878397 929.86484,59.263902 932.12251,59.867954 C 937.75225,61.374214 939.86106,61.609946 942.7915,58.975279"
         id="path2682"
         sodipodi:nodetypes="cssssssssc" />
      <path
         style="fill:none;fill-rule:evenodd;stroke:#000000;stroke-width:0.99999994px;stroke-linecap:butt;stroke-linejoin:miter;stroke-opacity:1"
         d="M 888.21864,117.26501 C 888.47401,117.24863 881.15213,118.54967 874.54361,121.43558 C 870.73287,123.09971 860.94097,121.84449 857.67779,119.43697 C 853.9765,116.70617 849.64335,116.47738 846.04395,111.99051 C 843.38178,108.67199 839.55906,103.8288 837.45206,99.292386 C 835.3391,94.743141 835.53058,96.364957 834.17494,88.709229 C 833.16448,83.00276 832.00621,81.146176 831.26203,77.540015 C 830.56895,74.181468 831.79445,69.817796 829.62689,65.413719"
         id="path2684"
         sodipodi:nodetypes="csssssss" />
      <path
         style="fill:none;fill-rule:evenodd;stroke:#000000;stroke-width:0.99999994px;stroke-linecap:butt;stroke-linejoin:miter;stroke-opacity:1"
         d="M 800.2724,110.44366 C 798.196,107.44039 801.25631,117.95774 803.33271,120.96102 C 806.53474,125.59246 808.17169,130.80462 812.55074,134.6524 C 816.86037,138.43917 817.99378,141.5841 820.83147,143.04676 C 823.85975,144.60768 827.21092,144.72515 829.91493,145.43657 C 834.96048,146.76401 837.64119,145.98064 842.00073,148.22775 C 845.18721,149.87022 848.79778,148.30268 852.04015,146.98411 C 852.6202,146.74822 853.20021,146.51237 853.78026,146.27648"
         id="path2686" />
      <path
         sodipodi:nodetypes="ccsssccssssssssssssssssssscssssssssssssssscssssssc"
         d="M 989.27213,-56.041051 C 990.04174,-55.959035 981.44561,-64.573935 981.71183,-64.28662 C 983.20841,-64.948938 987.27802,-69.608482 990.17089,-73.913657 C 992.67872,-77.645835 990.90389,-79.399662 990.33357,-82.300623 C 989.67104,-85.67054 993.44641,-89.138373 993.86235,-91.994827 C 994.49168,-96.316678 993.48523,-98.166812 993.50949,-101.68779 C 993.53374,-105.20876 992.59098,-109.8977 993.0465,-110.62451 C 993.50201,-111.35132 994.9755,-113.19449 994.22276,-113.85591 C 991.80026,-115.9845 989.35255,-115.03744 992.67611,-117.7739 C 996.4564,-120.8864 995.02835,-119.119 996.55776,-117.77514 C 997.97174,-116.53271 1001.2486,-113.4008 1001.2328,-111.10836 C 1001.2178,-108.94189 1001.5348,-104.30665 1001.8059,-102.92785 C 1002.2258,-100.79208 1001.7803,-97.905859 1001.4405,-95.572002 C 1001.0771,-93.076869 1002.8692,-90.88895 1000.3393,-88.009683 C 998.01954,-85.369638 993.28268,-81.371154 996.71789,-80.102828 C 1000.7532,-78.612932 998.4698,-82.72752 1000.6346,-85.191218 C 1002.2156,-86.990502 1005.4164,-91.610388 1007.2917,-92.136624 C 1009.6992,-92.812178 1014.4694,-95.284735 1016.0461,-98.945201 C 1017.7382,-102.87353 1017.6903,-104.60187 1020.9363,-108.29611 C 1024.145,-111.94781 1026.6915,-114.77765 1029.1576,-113.86711 C 1030.6894,-113.30158 1033.5558,-112.70326 1033.5373,-110.01878 C 1033.5169,-107.06053 1034.9196,-105.29694 1030.1186,-101.08081 C 1028.2957,-99.479893 1024.099,-94.974373 1021.9899,-93.722473 C 1019.0733,-91.991164 1014.9763,-92.76736 1012.4247,-91.038347 C 1010.2665,-89.575895 1007.0535,-86.187278 1004.1859,-82.923772 C 1000.9448,-79.235132 995.11904,-76.440989 995.08364,-71.302917 C 995.05201,-66.711341 988.85095,-60.464264 988.92453,-60.507947 C 990.15086,-60.852063 991.38206,-60.815278 992.60348,-61.540306 C 994.04157,-62.393947 998.72388,-67.35946 999.77616,-67.17971 C 1005.2176,-66.250173 1004.0835,-67.300394 1009.5441,-68.832726 C 1010.0346,-68.970373 1010.5271,-68.955653 1011.0157,-69.245667 C 1011.7882,-69.704218 1012.5607,-70.162765 1013.3332,-70.621316 C 1015.2275,-71.745777 1018.7248,-73.222273 1021.9599,-74.130088 C 1025.4752,-75.116522 1027.2711,-78.364093 1031.0096,-78.120208 C 1035.211,-77.846111 1037.2682,-77.700456 1041.716,-78.948574 C 1045.1011,-79.898472 1045.7574,-81.024298 1048.8887,-84.587982 C 1051.3642,-87.405265 1053.6799,-89.704293 1055.0303,-92.839383 C 1056.083,-95.28335 1058.6684,-98.454897 1061.4672,-98.272306 C 1062.937,-98.176425 1067.3743,-98.50192 1067.8515,-96.074507 C 1068.3566,-93.505277 1068.5665,-87.733407 1066.5126,-84.456143 C 1064.9797,-82.010278 1062.0523,-78.584502 1059.4325,-77.029398 C 1057.0355,-75.606572 1053.4734,-74.622308 1050.603,-74.551736 C 1048.482,-74.499586 1042.082,-70.781601 1043.1813,-70.837118 C 1042.3476,-69.89378 1041.386,-67.613314 1039.6413,-67.123746 C 1035.988,-66.098566 1032.6456,-63.560884 1029.2302,-63.476912 C 1026.2636,-63.403978 1023.6798,-63.773026 1020.9513,-64.780414 C 1018.6718,-65.622034 1015.1753,-68.236905 1012.1569,-67.389914 C 1009.5691,-66.663744 1005.9242,-64.190278 1003.1072,-63.39979 C 1000.7045,-62.725569 998.36587,-61.736794 995.95206,-60.303963 C 993.86051,-59.062429 989.70835,-57.053773 989.27213,-56.041051 z"
         style="fill:#14ac22;fill-opacity:1;fill-rule:evenodd;stroke:#000000;stroke-width:0.8872816px;stroke-linecap:butt;stroke-linejoin:miter;stroke-opacity:1"
         id="path2688" />
      <path
         id="path2690"
         style="fill:#14ac22;fill-opacity:1;fill-rule:evenodd;stroke:#000000;stroke-width:0.8872816px;stroke-linecap:butt;stroke-linejoin:miter;stroke-opacity:1"
         d="M 995.94588,-49.859089 C 997.08628,-49.636586 983.29755,-63.145206 983.7274,-62.697471 C 985.83283,-63.441485 991.16783,-69.557604 994.82465,-75.326969 C 997.99476,-80.328462 995.15122,-83.081943 993.91837,-87.313489 C 992.48625,-92.229093 997.55221,-96.679046 997.77254,-100.71223 C 998.10591,-106.81448 996.37663,-109.60095 995.93154,-114.63909 C 995.48645,-119.67723 993.46309,-126.5197 994.03221,-127.49819 C 994.60134,-128.47667 996.51168,-130.91464 995.31694,-131.96443 C 991.47195,-135.34293 988.00984,-134.32105 992.51275,-137.78547 C 997.63445,-141.72599 995.78042,-139.39032 998.20791,-137.25734 C 1000.4522,-135.28536 1005.6876,-130.35364 1005.9774,-127.07341 C 1006.2513,-123.97343 1007.3491,-117.29327 1007.9351,-115.28207 C 1008.8427,-112.16667 1008.5832,-108.0949 1008.4031,-104.79961 C 1008.2107,-101.27659 1011.1388,-97.899204 1007.8198,-94.121956 C 1004.7766,-90.658539 998.37234,-85.580038 1003.5858,-83.295041 C 1009.71,-80.610868 1005.7979,-86.814003 1008.6379,-90.046074 C 1010.712,-92.406519 1014.7777,-98.584443 1017.4573,-99.081912 C 1020.8974,-99.720541 1027.559,-102.60961 1029.3727,-107.63554 C 1031.3191,-113.02925 1031.0129,-115.51048 1035.2713,-120.35687 C 1039.4807,-125.14746 1042.8307,-128.85166 1046.5734,-127.21126 C 1048.898,-126.1924 1053.1855,-124.94439 1053.5248,-121.10319 C 1053.8988,-116.87025 1056.1976,-114.1536 1049.729,-108.77223 C 1047.2728,-106.72885 1041.7303,-100.85063 1038.8067,-99.346025 C 1034.7637,-97.265254 1028.6464,-98.935955 1025.1386,-96.808625 C 1022.1717,-95.009269 1017.9199,-90.59597 1014.158,-86.314651 C 1009.9061,-81.475607 1001.7398,-78.270181 1002.3893,-70.918154 C 1002.9697,-64.348109 994.72406,-56.249888 994.82606,-56.302386 C 996.57839,-56.627692 998.38989,-56.406938 1000.083,-57.278312 C 1002.0765,-58.304263 1008.2687,-64.774829 1009.8372,-64.3738 C 1017.9481,-62.300005 1016.1406,-63.958582 1023.9435,-65.407148 C 1024.6445,-65.537273 1025.3691,-65.448966 1026.0463,-65.797518 C 1027.1172,-66.348624 1028.188,-66.899734 1029.2588,-67.45084 C 1031.8848,-68.802272 1036.8146,-70.438921 1041.4374,-71.297111 C 1046.4605,-72.229625 1048.6522,-76.634429 1054.1707,-75.774861 C 1060.3727,-74.80883 1063.4109,-74.319435 1069.7666,-75.499333 C 1074.6037,-76.397307 1075.4129,-77.919702 1079.5208,-82.594821 C 1082.7684,-86.29075 1085.8522,-89.266442 1087.4056,-93.571006 C 1088.6165,-96.926654 1091.9769,-101.11483 1096.1084,-100.4713 C 1098.2781,-100.13336 1104.7442,-99.993653 1105.7758,-96.452856 C 1106.8677,-92.705193 1107.9636,-84.412186 1105.3973,-80.000092 C 1103.4821,-76.707294 1099.6546,-72.201789 1096.023,-70.332783 C 1092.7003,-68.622764 1087.6081,-67.69976 1083.4063,-67.990564 C 1080.3013,-68.205457 1071.4185,-63.755632 1073.024,-63.685043 C 1071.9294,-62.448165 1070.8298,-59.314199 1068.3368,-58.851388 C 1063.1164,-57.88225 1058.5588,-54.705 1053.559,-55.051033 C 1049.2163,-55.351589 1045.3748,-56.232745 1041.2339,-58.047639 C 1037.7744,-59.563894 1032.2872,-63.785287 1027.9741,-62.984592 C 1024.2763,-62.298117 1019.2661,-59.254124 1015.2407,-58.506845 C 1011.8075,-57.869476 1008.511,-56.772986 1005.165,-55.050937 C 1002.2657,-53.5588 996.44766,-51.249582 995.94588,-49.859089 z"
         sodipodi:nodetypes="ccsssccssssssssssssssssssscssssssssssssssscssssssc" />
    </g>
    <g
       transform="translate(285.71429,492.85715)"
       id="g2821">
      <path
         style="fill:url(#radialGradient2829);fill-opacity:1;fill-rule:nonzero;stroke:#000000;stroke-width:2.00000024;stroke-linecap:round;stroke-linejoin:round;marker:none;marker-start:none;marker-mid:none;marker-end:none;stroke-miterlimit:4;stroke-dashoffset:0;stroke-opacity:1;visibility:visible;display:inline;overflow:visible;enable-background:accumulate"
         d="M 59.54039,-2.5431032 C 59.958722,14.775599 48.46426,30.279407 33.689532,38.332644 C 22.106486,44.869121 9.0558847,48.803114 -4.1179733,50.342689 C -12.419392,50.190832 -19.926558,44.42766 -28.429747,46.576431 C -37.875674,47.941773 -47.735089,50.946966 -57.062386,47.206791 C -77.277787,40.896125 -97.354937,27.15391 -103.69357,5.9887564 C -108.987,-11.038562 -101.73736,-29.816942 -88.720528,-41.334503 C -67.357887,-60.604915 -36.689744,-66.497501 -8.7625244,-62.9746 C 15.864083,-59.732898 41.391172,-47.78764 53.756002,-25.25136 C 57.484404,-18.29761 59.561079,-10.445404 59.540391,-2.5431033 L 59.54039,-2.5431032 z"
         id="path2823" />
      <path
         style="fill:#11b423;fill-opacity:0.97340423;fill-rule:nonzero;stroke:#000000;stroke-width:2.00000024;stroke-linecap:round;stroke-linejoin:round;marker:none;marker-start:none;marker-mid:none;marker-end:none;stroke-miterlimit:4;stroke-dashoffset:0;stroke-opacity:1;visibility:visible;display:inline;overflow:visible;enable-background:accumulate"
         d="M 20.822323,-45.587147 C 13.720225,-44.610469 7.1312535,-47.836454 0.47998938,-49.716022 C -4.2647004,-51.236441 -9.1144469,-52.54122 -13.575131,-54.811822 C -20.500799,-52.544162 -27.327765,-49.854663 -33.442141,-45.828124 C -36.658801,-43.900625 -40.043132,-42.256034 -43.521596,-40.858281 C -39.170818,-45.695296 -36.612295,-51.966914 -31.477794,-56.12661 C -30.163447,-57.462152 -27.272529,-59.157647 -30.708551,-59.193754 C -37.023965,-60.607268 -43.645153,-62.124344 -50.040295,-60.21895 C -54.188264,-59.104336 -58.559518,-59.031545 -62.792745,-59.655577 C -56.575723,-59.521234 -50.60232,-61.33874 -44.822992,-63.424819 C -37.993742,-66.033784 -30.605934,-65.809815 -23.432814,-65.49337 C -20.948388,-66.727186 -18.323161,-70.109832 -14.874055,-68.242137 C -11.673008,-67.202462 -8.8187143,-65.913419 -5.9554986,-64.50746 C -2.8272618,-66.679204 1.1936235,-64.391035 4.9054713,-65.038322 C 11.522522,-65.135523 18.278566,-64.704126 24.642622,-62.798372 C 29.225532,-61.415805 30.301073,-56.250314 32.405357,-52.573992 C 33.272257,-50.646732 34.971583,-47.791166 35.354504,-46.429391 C 31.59813,-48.797619 28.541028,-52.034439 25.507347,-55.209344 C 21.669257,-56.547143 17.53973,-57.096742 14.099469,-59.546734 C 10.805653,-61.00159 7.158635,-59.451006 3.7288799,-59.395077 C 2.0133495,-59.246081 1.0198221,-59.109463 3.2593573,-58.674162 C 8.9207178,-57.145685 12.902846,-52.593686 17.404268,-49.139058 C 18.621358,-48.03462 19.78994,-46.86805 20.822323,-45.587147 z"
         id="path2825" />
      <path
         style="fill:#11b422;fill-opacity:0.97647059;fill-rule:nonzero;stroke:#000000;stroke-width:0.80522847;stroke-linecap:round;stroke-linejoin:round;marker:none;marker-start:none;marker-mid:none;marker-end:none;stroke-miterlimit:4;stroke-dashoffset:0;stroke-opacity:1;visibility:visible;display:inline;overflow:visible;enable-background:accumulate"
         d="M 37.795635,-90.065346 C 35.859284,-89.764539 34.022679,-88.005473 31.854408,-87.587848 C 28.215948,-86.709601 23.702789,-86.874117 20.98865,-89.780045 C 19.382189,-90.053154 22.832576,-92.473523 23.894663,-92.710621 C 26.961719,-94.049101 30.348811,-94.354583 33.645884,-94.384496 C 35.946903,-94.214135 39.319435,-93.028538 37.795637,-90.065349 L 37.795635,-90.065346 z M 37.809181,-90.022484 C 35.691787,-89.389933 34.442697,-86.720268 32.338108,-85.663491 C 22.881997,-79.128753 11.216714,-76.725801 1.8653028,-70.014215 C -0.68704318,-68.226051 -2.7632563,-65.783374 -3.9726722,-62.902836 C -7.0360476,-58.415351 -13.550846,-57.509826 -18.316895,-59.552064 C -20.212512,-60.18254 -22.047658,-62.485291 -20.466611,-64.34195 C -17.506893,-69.682711 -11.723578,-72.443552 -6.4509026,-75.014364 C 1.1902601,-78.675014 9.459884,-81.286897 16.270342,-86.469411 C 17.8766,-87.279737 19.359418,-90.656503 20.876656,-89.69732 C 22.356708,-89.117058 23.769815,-87.10377 25.830019,-87.10618 C 29.491038,-86.421766 33.358907,-87.512953 36.288729,-89.764858 C 36.808675,-89.944402 37.471126,-89.290038 37.80918,-90.022484 L 37.809181,-90.022484 z"
         id="path2827" />
    </g>
    <g
       id="g2738"
       transform="translate(-721.42857,512.85714)">
      <path
         id="path2731"
         d="M 839.31006,51.962326 C 806.32158,24.74709 775.46186,-8.1868366 760.76128,-49.057857 C 749.46438,-83.610967 748.91231,-121.4009 759.44185,-156.20001 C 763.65367,-175.68485 761.48875,-196.71947 769.03089,-215.31956 C 773.54881,-234.46871 790.76401,-216.77576 800.79855,-211.3108 C 811.71543,-195.1372 792.38184,-173.42277 806.87618,-158.27894 C 817.98322,-143.12743 835.68028,-135.13404 844.15949,-117.86964 C 865.27042,-85.48087 874.03371,-44.193797 905.81537,-19.423713 C 935.29215,3.740729 974.70088,3.1517533 1008.6909,15.531414 C 1037.645,22.812616 1069.606,24.17272 1094.6307,42.059166 C 1112.0526,56.614785 1089.3645,77.165645 1075.4153,83.644583 C 1040.2532,101.26737 1000.0052,106.37182 961.07126,106.32116 C 923.68467,105.42443 889.61954,86.50941 859.03282,66.583921 C 852.27447,61.965109 845.69662,57.082729 839.31005,51.962327 L 839.31006,51.962326 z"
         style="fill:#cfe338;fill-opacity:1;fill-rule:nonzero;stroke:#000000;stroke-width:2;stroke-linecap:round;stroke-linejoin:round;marker:none;marker-start:none;marker-mid:none;marker-end:none;stroke-miterlimit:4;stroke-dashoffset:0;stroke-opacity:1;visibility:visible;display:inline;overflow:visible;enable-background:accumulate" />
      <path
         style="fill:none;fill-rule:evenodd;stroke:#000000;stroke-width:1px;stroke-linecap:butt;stroke-linejoin:miter;stroke-opacity:1"
         d="M 796.60165,-138.39598 C 799.0485,-119.77659 800.71067,-102.65222 807.83787,-79.368462 C 837.88991,-28.993488 865.42024,9.9008881 923.19347,30.356314 C 965.87577,46.552158 1022.8933,59.036076 1068.5846,52.206598"
         id="path2733"
         sodipodi:nodetypes="cccc" />
    </g>
    <path
       style="fill:none;stroke:none"
       d="M 321.73697,-188.30231 C 470.79904,-188.30231 619.86111,-188.30231 768.92316,-188.30231 C 768.92316,-28.409 768.92316,131.4843 768.92316,291.37761 C 619.86111,291.37761 470.79904,291.37761 321.73697,291.37761 C 321.73697,131.4843 321.73697,-28.409 321.73697,-188.30231 z"
       id="rect2742" />
  </g>
</svg>
