<?xml version="1.0" encoding="UTF-8" standalone="no"?>
<!-- Created with Inkscape (http://www.inkscape.org/) -->

<svg
   xmlns:dc="http://purl.org/dc/elements/1.1/"
   xmlns:cc="http://creativecommons.org/ns#"
   xmlns:rdf="http://www.w3.org/1999/02/22-rdf-syntax-ns#"
   xmlns:svg="http://www.w3.org/2000/svg"
   xmlns="http://www.w3.org/2000/svg"
   xmlns:xlink="http://www.w3.org/1999/xlink"
   xmlns:sodipodi="http://sodipodi.sourceforge.net/DTD/sodipodi-0.dtd"
   xmlns:inkscape="http://www.inkscape.org/namespaces/inkscape"
   width="800"
   height="800"
   id="svg2"
   sodipodi:version="0.32"
   inkscape:version="0.48.0 r9654"
   sodipodi:docname="PlantWateringDiagram.svg"
   inkscape:output_extension="org.inkscape.output.svg.inkscape"
   inkscape:export-filename="/Users/danny/Dropbox/Squidoo/Squidoo/HowtoSelfWateringPlant/-self-watering-plant-pot-experiment.png"
   inkscape:export-xdpi="90"
   inkscape:export-ydpi="90"
   version="1.1">
  <defs
     id="defs4">
    <linearGradient
       inkscape:collect="always"
       id="linearGradient3811">
      <stop
         style="stop-color:#067fbd;stop-opacity:1;"
         offset="0"
         id="stop3813" />
      <stop
         style="stop-color:#067fbd;stop-opacity:0;"
         offset="1"
         id="stop3815" />
    </linearGradient>
    <linearGradient
       id="linearGradient3763">
      <stop
         style="stop-color:#30941f;stop-opacity:0.92792791;"
         offset="0"
         id="stop3765" />
      <stop
         style="stop-color:#9ee891;stop-opacity:1;"
         offset="1"
         id="stop3767" />
    </linearGradient>
    <linearGradient
       id="linearGradient3755">
      <stop
         style="stop-color:#000000;stop-opacity:1;"
         offset="0"
         id="stop3757" />
      <stop
         style="stop-color:#000000;stop-opacity:0;"
         offset="1"
         id="stop3759" />
    </linearGradient>
    <inkscape:perspective
       sodipodi:type="inkscape:persp3d"
       inkscape:vp_x="0 : 526.18109 : 1"
       inkscape:vp_y="0 : 1000 : 0"
       inkscape:vp_z="744.09448 : 526.18109 : 1"
       inkscape:persp3d-origin="372.04724 : 350.78739 : 1"
       id="perspective10" />
    <radialGradient
       inkscape:collect="always"
       xlink:href="#linearGradient3763"
       id="radialGradient3771"
       cx="482.70068"
       cy="68.907394"
       fx="482.70068"
       fy="68.907394"
       r="69.578499"
       gradientTransform="matrix(1,0,0,2.5540392,-84.852814,121.20969)"
       gradientUnits="userSpaceOnUse" />
    <linearGradient
       inkscape:collect="always"
       xlink:href="#linearGradient3811"
       id="linearGradient3824"
       gradientUnits="userSpaceOnUse"
       gradientTransform="translate(220.53226,171.66434)"
       x1="213.55357"
       y1="898.78796"
       x2="212.83482"
       y2="788.78796" />
    <radialGradient
       inkscape:collect="always"
       xlink:href="#linearGradient3763"
       id="radialGradient2455"
       gradientUnits="userSpaceOnUse"
       gradientTransform="matrix(0.88865164,0,0,2.4178885,13.698192,312.47338)"
       cx="482.70068"
       cy="68.907394"
       fx="482.70068"
       fy="68.907394"
       r="69.578499" />
  </defs>
  <sodipodi:namedview
     id="base"
     pagecolor="#ffffff"
     bordercolor="#666666"
     borderopacity="1.0"
     gridtolerance="10000"
     guidetolerance="10"
     objecttolerance="10"
     inkscape:pageopacity="1"
     inkscape:pageshadow="2"
     inkscape:zoom="0.98994949"
     inkscape:cx="445.14813"
     inkscape:cy="510.48668"
     inkscape:document-units="px"
     inkscape:current-layer="layer1"
     showgrid="false"
     inkscape:window-width="1685"
     inkscape:window-height="1325"
     inkscape:window-x="3"
     inkscape:window-y="0"
     showguides="true"
     inkscape:guide-bbox="true"
     inkscape:window-maximized="0" />
  <metadata
     id="metadata7">
    <rdf:RDF>
      <cc:Work
         rdf:about="">
        <dc:format>image/svg+xml</dc:format>
        <dc:type
           rdf:resource="http://purl.org/dc/dcmitype/StillImage" />
        <dc:title></dc:title>
      </cc:Work>
    </rdf:RDF>
  </metadata>
  <g
     inkscape:label="Layer 1"
     inkscape:groupmode="layer"
     id="layer1"
     style="display:inline"
     transform="translate(0,-252.36218)">
    <path
       style="fill:#bd6306;fill-opacity:0.67021275;fill-rule:nonzero;stroke:#bd6306;stroke-width:5.00000048;stroke-linecap:round;stroke-linejoin:round;stroke-miterlimit:4;stroke-opacity:0.86702127;stroke-dashoffset:0;marker:none;visibility:visible;display:inline;overflow:visible;enable-background:accumulate"
       d="m 194.81798,938.31224 444.9795,0 -39.59563,101.42856 -365.78824,0 -39.59563,-101.42856 z"
       id="rect2403"
       sodipodi:nodetypes="ccccc"
       inkscape:connector-curvature="0" />
    <path
       style="fill:#bd6306;fill-opacity:0.67021275;fill-rule:nonzero;stroke:#bd6306;stroke-width:5;stroke-linecap:round;stroke-linejoin:round;stroke-miterlimit:4;stroke-opacity:0.86702127;stroke-dashoffset:0;marker:none;visibility:visible;display:inline;overflow:visible;enable-background:accumulate"
       d="m 279.93273,929.74917 -29.75,101.40623 147.125,0 0,-81.40623 40,0 0,81.40623 147.125,0 -29.71875,-101.40623 -274.78125,0 z"
       id="path3176"
       inkscape:connector-curvature="0" />
    <path
       sodipodi:nodetypes="ccssscssc"
       id="path3795"
       d="m 568.05531,1036.166 c 39.99518,-4.0368 2.71843,-51.68251 1.45878,-110.5011 -1.35241,-63.4582 -37.59044,-93.76529 -79.74019,-114.20316 -44.85166,-21.7479 -80.1215,4.26809 -78.61401,41.9547 1.59854,39.964 42.66637,77.55893 89.18016,69.89055 48.79167,-8.04384 87.23514,-63.79269 85.11202,-134.95792 -2.21596,-73.49554 -47.14322,-140.65382 -97.97219,-157.80439 -52.89818,-17.84881 -97.12754,23.25907 -92.21722,78.82132 7.02369,79.47625 162.89463,19.85697 193.23324,-72.20814"
       style="fill:none;stroke:#fdfdfd;stroke-width:4;stroke-linecap:round;stroke-linejoin:round;stroke-miterlimit:4;stroke-opacity:1;stroke-dasharray:none"
       inkscape:connector-curvature="0" />
    <path
       sodipodi:nodetypes="ccccc"
       id="path3181"
       d="m 221.96084,595.28123 390.69378,0 -34.76513,332.01842 -321.16353,0 -34.76512,-332.01842 z"
       style="fill:#bd6306;fill-opacity:0.67021275;fill-rule:nonzero;stroke:#bd6306;stroke-width:4.86490536;stroke-linecap:round;stroke-linejoin:round;stroke-miterlimit:4;stroke-opacity:0.86702127;stroke-dashoffset:0;marker:none;visibility:visible;display:inline;overflow:visible;enable-background:accumulate"
       inkscape:connector-curvature="0" />
    <path
       style="fill:#f7f3d4;fill-opacity:1;fill-rule:evenodd;stroke:#716347;stroke-width:0.97298098px;stroke-linecap:butt;stroke-linejoin:miter;stroke-opacity:1"
       d="m 388.90873,646.02618 c 5.86146,13.392 -7.80686,21.97404 -12.56571,32.81502 -5.01853,12.99413 -22.1501,16.05962 -35.01695,16.09169 -10.90677,0.62662 -25.45418,-8.01171 -33.51265,1.63566 -11.49935,13.24927 -24.00893,25.85739 -33.88867,40.26834 5.26123,2.94349 19.18027,-12.83068 26.52259,-17.2688 10.45233,-6.02838 17.71925,-21.63594 31.63897,-17.11999 13.3245,0.8337 28.1356,5.24586 40.17397,-2.57815 10.10261,-5.17142 23.45897,-14.15003 33.93684,-4.00973 13.78046,10.00439 -0.70536,24.70542 -14.72615,22.5377 -17.0294,0.77661 -29.26699,13.31759 -45.04863,17.7795 -18.67119,-0.59783 -11.89391,19.0774 -22.22747,28.1247 -4.51796,7.58018 -19.12949,23.85538 -17.43494,25.10237 11.59812,-10.05381 20.47402,-23.0941 33.70862,-31.2848 12.71764,-3.97372 21.81458,-12.93618 30.86072,-21.79253 5.50513,-8.9397 25.86731,-5.01137 12.908,5.11514 -11.65376,10.60061 -28.95875,15.95251 -26.81304,34.27286 -3.42042,13.09465 -8.3751,25.88001 -8.9216,39.57672 4.61751,-4.74518 7.7309,-20.91282 14.73986,-28.20937 8.73611,-9.82336 20.26747,-19.11633 22.38801,-32.48727 0.56514,15.6343 1.45312,31.45663 -0.79617,47.05864 -1.45447,14.21956 -22.17655,13.48158 -25.30976,26.10307 2.32417,5.69084 16.21984,3.0535 12.83058,4.66278 18.98996,-5.03681 -11.78548,10.13057 2.40327,11.99899 5.92237,2.27712 5.67227,-12.45183 10.1097,-1.39405 5.23976,1.95515 17.1115,-13.42684 15.1346,1.33821 2.81837,5.45827 15.03975,16.06076 18.95441,13.0029 -10.33032,-6.4768 -6.51521,-16.73313 -9.58106,-25.6992 -10.1872,-4.03926 -33.60515,-4.12195 -17.62088,-18.75619 2.99839,-13.68888 7.48348,-26.96162 8.73249,-41.04304 -3.34778,-13.69042 7.84445,-20.93791 21.17109,-17.61584 19.84848,1.65815 4.33604,21.99719 6.7023,33.05206 1.66591,13.77181 5.4216,27.16057 6.96228,40.92628 3.51098,11.53262 7.10483,22.97299 8.01372,35.03027 1.38276,7.43344 2.11586,18.99466 4.23577,23.85774 -0.69123,-21.0008 -3.15361,-41.91296 -4.45799,-62.88232 3.38415,13.39189 -1.13731,-15.62285 -3.47375,-19.8236 -5.2258,-8.19349 -1.60467,-34.83124 10.09794,-18.92524 6.80115,12.56537 22.79797,13.18007 21.71383,29.26594 3.98404,17.85941 7.01549,35.90029 9.6035,53.98131 0.75057,-23.56651 0.0952,-47.30404 -0.61776,-70.88715 -0.0791,-14.74941 -13.49644,-21.52328 -26.70244,-25.07503 -6.80063,-0.42105 -11.54831,-4.64651 -1.73291,-5.59709 15.24381,-5.80161 30.87765,-0.98883 44.99179,5.08355 9.05396,9.02449 7.87147,25.05632 11.62277,37.05346 0.33442,7.61544 5.26018,15.94512 4.91092,2.89432 1.20265,-16.04476 -0.71137,-32.28057 3.03447,-48.09716 0.2271,-15.50562 -24.00066,-11.11723 -35.18619,-15.29061 -6.59569,-0.94984 -20.14363,-8.46352 -5.74061,-10.4644 12.04888,-2.83822 24.88882,-0.29011 36.48686,-2.09621 13.98957,4.80373 21.15216,15.21506 21.89261,29.24628 0.62296,6.625 9.00922,28.18733 6.97954,9.9076 -1.8055,-13.19869 -3.48628,-26.5474 -6.08463,-39.55609 -11.33741,-3.56442 -22.02738,-7.82764 -33.27906,-11.82813 -14.33435,-6.53275 -30.77159,-7.18151 -43.95241,2.19271 -7.30669,5.86702 -19.429,12.907 -23.24585,0.30745 2.30012,-15.08981 21.98957,-19.00555 35.62731,-18.94521 12.5603,-0.44043 22.07279,-14.53419 34.32711,-2.84146 7.44617,3.98834 17.29859,12.68421 22.312,14.95435 -12.76949,-7.20255 -10.86956,-28.35781 -26.54649,-28.70993 -16.1349,-2.02956 -32.24026,-1.40744 -48.2424,-4.63636 -16.05786,1.24651 -18.35084,-16.4755 -1.71938,-16.49795 12.67916,1.02718 22.51848,11.95122 36.07034,9.22728 11.84564,0.94093 33.21672,-6.14485 36.03456,9.82939 1.39777,5.14829 5.29414,20.24484 5.9312,6.75301 -0.73245,-6.23175 4.02252,-20.20697 7.86039,-6.94101 4.58971,7.74281 8.18162,22.77025 14.83766,25.69409 -1.12171,-15.89561 -8.63861,-30.98875 -9.22836,-46.8427 15.07363,-5.77409 17.43708,17.67019 21.59761,27.0894 2.12453,7.26868 5.26854,15.04607 1.84435,2.82553 -2.37418,-12.3533 -8.88028,-24.43621 -6.37664,-37.20438 -8.44685,-9.37539 -28.11204,0.89036 -40.76666,-0.44746 -14.55046,4.16258 -30.16852,7.63984 -45.06699,6.1592 -12.20785,-4.63803 -25.80756,-2.92806 -37.93788,-7.03674 -11.71815,-3.39466 -11.54257,-18.82655 -26.88957,-15.79922 -6.55834,-1.90885 -13.58317,-0.8492 -19.1929,2.8689 z"
       id="path3791"
       inkscape:connector-curvature="0" />
    <path
       style="fill:none;stroke:#fdfdfd;stroke-width:3.89192367;stroke-linecap:round;stroke-linejoin:round;stroke-miterlimit:4;stroke-opacity:1;stroke-dasharray:none"
       d="m 279.36534,1024.166 c -73.04795,-3.8216 -4.96499,-48.92742 -2.66434,-104.61051 2.47006,-60.07537 68.65587,-88.76685 145.63897,-108.11521 81.91791,-20.58857 146.33539,4.04056 143.58214,39.71817 -2.91962,37.8336 -77.9267,73.42442 -162.88035,66.16483 -89.11403,-7.61504 -159.3279,-60.39203 -155.45018,-127.76358 4.04727,-69.57764 86.10324,-133.15585 178.93822,-149.39216 96.61423,-16.89732 177.39552,22.01918 168.42727,74.61952 -12.82818,75.23953 -297.51381,18.79843 -352.92481,-68.35887"
       id="path3784"
       sodipodi:nodetypes="ccssscssc"
       inkscape:connector-curvature="0" />
    <path
       style="fill:#9ee891;fill-opacity:1;fill-rule:evenodd;stroke:#000000;stroke-width:0.91721284px;stroke-linecap:butt;stroke-linejoin:miter;stroke-opacity:1"
       d="m 275.05699,407.63335 c 6.13194,1.28962 21.49102,0.45623 55.38203,6.42398 11.73216,2.06587 19.02029,15.07773 28.56381,16.90521 5.37579,1.0294 37.4133,12.38209 43.3237,20.68941 5.28354,-1.16644 2.12271,-16.34253 -0.31464,-17.11031 -2.36124,0.50309 -24.53037,-12.79543 -32.85304,-15.75085 -9.02715,-3.20558 -16.48254,-9.71951 -24.12055,-16.22901 -5.19727,-4.42938 -19.99713,-3.1268 -26.65955,-1.35242 -14.97541,2.99224 -26.01976,-0.46633 -41.25882,0"
       id="path3748"
       sodipodi:nodetypes="cssccsscc"
       inkscape:connector-curvature="0" />
    <path
       style="fill:#9ee891;fill-opacity:1;fill-rule:evenodd;stroke:#000000;stroke-width:0.97298098px;stroke-linecap:butt;stroke-linejoin:miter;stroke-opacity:1"
       d="m 575.89993,497.23098 c -3.80065,6.24821 -8.10468,12.73537 -15.43673,15.67353 -10.11529,5.09291 -20.75392,9.5389 -32.18948,11.04475 -6.83368,1.13392 -13.9178,2.9001 -18.66052,8.08417 -5.63697,6.32019 -14.28998,8.35744 -20.40793,14.11974 -7.49722,3.71056 -15.81368,-1.77761 -23.70906,-1.87646 -9.73503,-1.63662 -20.12286,-0.24292 -28.33523,5.20868 -5.68646,4.32448 -14.57216,5.95601 -17.11996,13.04094 -2.71178,6.4429 -4.44824,13.43471 -4.516,20.36223 -0.41627,2.70909 2.49165,7.79532 3.99468,2.68692 6.8675,-4.47139 11.05042,-12.69716 19.94996,-14.13002 9.11865,-2.74088 18.29604,-6.06928 27.83634,-6.9441 8.20899,0.70041 16.96513,5.77562 24.86511,1.19051 8.31674,-2.37763 16.7941,-5.66441 20.98924,-13.44191 4.17762,-6.32696 11.03128,-10.00164 18.01073,-12.96188 7.0031,-3.04194 13.53682,-6.9927 20.41593,-10.19902 6.78079,-2.36016 15.11866,-4.91451 17.51707,-12.15922 3.02353,-5.98989 6.66911,-11.80491 8.22441,-18.34645"
       id="path3750"
       inkscape:connector-curvature="0" />
    <path
       style="fill:url(#radialGradient2455);fill-opacity:1;fill-rule:evenodd;stroke:#000000;stroke-width:0.91721284px;stroke-linecap:butt;stroke-linejoin:miter;stroke-opacity:1"
       d="m 499.91758,363.34168 c 10.81442,4.46679 -6.92618,16.93491 -12.973,18.82118 -11.84041,10.16034 -26.38568,19.60504 -31.67739,35.58958 -0.84149,13.93303 -13.70147,20.73544 -21.34011,30.30443 -7.06815,9.432 -20.63407,11.70319 -19.34017,26.18185 -0.0958,12.77185 -7.30028,23.56002 -12.21315,34.78367 -3.57616,12.31824 -3.32363,28.62609 4.62977,39.1003 9.56336,9.16324 10.54589,23.73302 11.64192,36.51567 0.3502,15.05857 -0.9869,30.24511 1.70237,45.11394 3.56543,15.99073 -8.61493,19.38817 -20.60114,16.87999 -13.22949,2.88307 -16.94159,-9.57078 -12.01936,-20.24477 6.14616,-11.61393 5.82157,-24.96319 5.55207,-37.86838 0.0991,-14.43343 1.16962,-29.77623 -6.34751,-42.60114 -6.58825,-14.69411 -7.22563,-31.85977 -2.16645,-47.18259 -0.63244,-14.36853 10.33591,-24.22243 10.06514,-37.68607 9.22018,-7.6486 9.81931,-19.65954 7.4637,-31.80815 -0.65406,-11.81348 5.91814,-23.8615 -0.23354,-35.18566 -5.12283,-13.3776 2.86962,-24.45438 12.58452,-31.89578 6.21147,-11.85681 6.43469,-26.68147 10.95195,-39.57405 -0.01,-5.03731 1.43923,-17.15444 5.21573,-6.23545 4.45214,12.7136 4.62376,28.0744 0.91165,40.73969 -14.15635,5.14383 -10.3615,20.61353 -10.51614,33.13103 0.38705,12.6364 -1.12264,25.58239 1.82491,37.95221 11.16384,-7.30769 11.96122,-22.34521 17.82825,-33.28319 11.36922,-12.87234 29.57541,-14.15456 41.72202,-25.97308 5.07472,-3.74775 11.15534,-5.71332 17.33396,-5.57523 z"
       id="path3746"
       inkscape:connector-curvature="0" />
    <path
       style="fill:#9ee891;fill-opacity:1;fill-rule:evenodd;stroke:#000000;stroke-width:0.97298098px;stroke-linecap:butt;stroke-linejoin:miter;stroke-opacity:1"
       d="m 249.06408,475.5923 c 8.13449,3.31772 8.75705,2.24564 12.89675,6.76209 6.18839,6.75158 6.7045,7.69951 14.28572,14.87659 5.13147,4.85793 10.48472,8.57338 17.14286,14.87659 4.04464,3.82904 6.13773,11.22021 11.42857,16.22901 6.18622,5.85644 12.40356,9.96053 17.14285,18.93384 5.15239,9.75543 11.25449,13.48296 22.85715,16.22901 9.31588,2.20481 16.81131,1.87168 24.28571,5.40966 6.57422,3.11188 22.52749,14.5515 25.35714,15.89091 0.14881,0.68142 6.52379,-3.21702 -0.53571,-19.77911 -20.96494,-19.97502 -9.1432,-10.20571 -16.25,-15.04564 -6.91239,-4.70754 -8.74302,-5.18612 -18.57143,-8.11451 -13.98914,-4.16808 -16.34879,-1.34023 -22.85714,-9.46692 -4.26379,-5.324 -10.07595,-1.71191 -11.42858,-8.11449 -2.22296,-10.52229 -3.9479,-8.93328 -14.28571,-12.84796 -7.11293,-2.6935 -13.41387,-17.25129 -21.42857,-20.28627 -9.04431,-3.42487 -8.21368,-8.28327 -15,-11.49555 -3.66628,-1.73542 -19.87147,-10.81933 -22.14286,-10.81933"
       id="path3752"
       inkscape:connector-curvature="0" />
    <g
       id="g3439"
       transform="matrix(0.88865164,0,0,0.94669199,168.57747,294.83699)">
      <path
         style="fill:#9ee891;fill-opacity:1;fill-rule:evenodd;stroke:#000000;stroke-width:1px;stroke-linecap:butt;stroke-linejoin:miter;stroke-opacity:1"
         d="m 280,63.790749 c -0.51492,4.759539 -3.43474,-3.012314 -4.24927,-4.567847 -3.19903,-6.43704 -5.55772,-13.606904 -10.65798,-18.84048 -6.62942,-4.269945 -14.80566,-4.85236 -22.37522,-6.300777 -7.5161,-1.12872 -15.10737,-2.129065 -22.25213,-4.850471 -7.30091,-2.24178 -15.79154,-5.477955 -18.42413,-13.425708 -3.17544,-10.7347361 -5.06157,-21.8751364 -5.03176,-33.086848 -0.0285,-4.328867 -3.78284,-10.104343 0.79609,-13.253585 6.96695,-3.155233 14.91273,-2.720031 22.39334,-2.517714 12.48937,0.550949 24.64539,3.839417 36.54816,7.442931 4.80702,1.573756 10.45079,3.281905 12.35902,8.554568 3.51903,8.906767 1.96481,18.6927745 2.32245,28.033438 0.31525,5.19312 -0.74732,10.582169 0.79102,15.623236 2.72419,6.247763 7.80954,11.743165 7.75582,18.955006 -0.33142,2.300978 0.70413,2.858652 2.88173,2.519972"
         id="path3234"
         inkscape:connector-curvature="0" />
      <path
         style="fill:none;stroke:#297e1a;stroke-width:5;stroke-linecap:round;stroke-linejoin:round;stroke-miterlimit:4;stroke-opacity:0.72941176;stroke-dasharray:none"
         d="m 268.57144,33.076466 c 1.61416,-4.273619 -1.60735,-8.159074 -4.21695,-11.186789 -2.43256,-2.7119 -3.79717,-6.205651 -6.80038,-8.41064 -4.36382,-3.8910297 -8.30304,-8.4879863 -13.81622,-10.7951289 -6.06472,-3.03989943 -13.50831,-5.1122186 -17.12365,-11.3575434 -1.33556,-3.0482617 -2.21006,-6.6474977 -5.91221,-7.5814457 -1.3533,-0.675126 -2.83805,-1.402457 -3.55917,-2.811309 m 14.28571,16.4285714 c -2.13932,-2.9553719 -6.63502,-1.9725917 -9.84241,-2.0870651 -3.61183,0.070515 -7.04213,0.9544045 -10.15759,2.8013509 m 20,-3.5714285 c -1.03557,-2.5463566 0.86506,-5.9497777 1.55017,-8.6687377 0.42846,-3.376931 3.83502,-4.224514 6.73879,-4.015992 0.57214,-0.03262 1.14719,-0.06313 1.71104,-0.172413 M 223.57143,7.3621817 c 0.52571,-2.9894671 4.01009,-3.9640022 6.4963,-4.8624437 2.80454,-0.6926628 5.92332,-1.68101346 8.74656,-0.6904823 0.67614,0.7443948 -0.82462,1.8947206 0.35344,0.4171198 1.19687,-3.15408375 -1.24422,-8.4185498 3.31804,-9.601045 2.68331,-0.7330359 5.49335,-0.2669287 8.22852,-0.263149 M 240,22.362183 c -1.25941,-3.937739 2.54756,-5.710868 5.55822,-6.805264 2.00164,-0.59168 4.87108,-2.613509 6.58464,-1.766166 -1.82802,1.051189 0.71965,-3.034499 1.12731,-3.783552 1.87906,-3.1019829 4.16957,-6.4838032 7.95547,-7.3118761 l 0.38809,-0.1313338 0.52913,-0.2018096"
         id="path3365"
         inkscape:connector-curvature="0" />
      <path
         d="m 268.57143,33.076467 c 2.20287,-6.538178 -4.75599,-10.226263 -7.85714,-16.428571 -0.38402,-0.768028 -10.85563,-10.2845789 -11.42858,-10.7142859 -5.33076,-3.9980757 -13.00257,-5.82336024 -18.57142,-10 -3.16054,-2.3704002 -4.96571,-5.5771111 -5.71429,-8.5714291 -0.82073,-3.282932 -6.34379,-3.401857 -7.85714,-6.428571 m 14.28571,16.4285715 c -0.79312,-3.1725031 -12.20059,-2.1284245 -15,-1.4285714 -1.73245,0.4331134 -3.55334,1.4195259 -5,2.1428571 m 20,-3.5714286 c -1.56189,0.390473 1.7337,-10.3051256 2.85714,-11.4285716 1.5093,-1.509296 5.22946,-1.04589 7.14286,-1.428571 M 223.57143,7.3621815 c 0,-5.2000785 18.67701,-7.96272504 15,-4.2857143 2.04817,-2.0481726 0.13319,-5.9806723 1.42857,-8.5714286 1.56021,-3.1204242 7.28565,-2.1428571 10.71429,-2.1428571 M 240,22.362182 c 0,-1.527029 -0.40686,-3.164565 0.71429,-4.285715 1.07901,-1.079014 12.29378,-6.01613 11.42857,-4.285714 -2.80205,2.802048 2.88423,-8.2278294 6.42857,-10.0000001 2.39955,-1.1997768 1.92018,-0.7680731 3.57143,-1.4285714"
         style="fill:none;stroke:#000000;stroke-width:1px;stroke-linecap:butt;stroke-linejoin:miter;stroke-opacity:1"
         id="path3270"
         inkscape:connector-curvature="0" />
    </g>
    <g
       id="g3434"
       transform="matrix(0.77784104,-0.45779336,0.42972669,0.82864405,16.884537,577.37345)">
      <path
         style="fill:#9ee891;fill-opacity:1;fill-rule:evenodd;stroke:#000000;stroke-width:1px;stroke-linecap:butt;stroke-linejoin:miter;stroke-opacity:1"
         d="m 341.22495,-16.223003 c -6.5139,-5.698126 -13.03735,-11.680769 -21.21537,-14.906102 -5.48718,-2.701417 -11.5391,-4.517911 -16.476,-8.17973 -6.10663,-6.154034 -11.44519,-13.028954 -17.27963,-19.425833 -3.68913,-6.920703 -3.04353,-15.070564 -3.9132,-22.650662 -0.56414,-5.77437 -2.31857,-11.434923 -1.69789,-17.302583 0.31594,-5.205117 0.57943,-10.443417 0.9838,-15.623667 2.91562,-4.32005 8.67481,-5.26473 13.26473,-6.98658 4.98535,-1.03043 9.6654,-4.38782 14.93264,-3.00512 8.65963,1.7781 14.62783,8.89151 22.40778,12.5522 4.46623,1.87765 7.63533,6.1374 7.58724,11.07338 0.44906,12.90799 -0.14993,25.838284 0.18095,38.754167 -0.63208,7.42911 -5.68509,13.86149 -5.40931,21.465658 -0.23714,4.771198 -1.7159,10.907727 2.59781,14.350611 3.31281,1.299592 6.27834,3.107459 9.27994,5.035206"
         id="path3226"
         inkscape:connector-curvature="0" />
      <path
         id="path3367"
         style="fill:none;stroke:#297e1a;stroke-width:5;stroke-linecap:round;stroke-linejoin:round;stroke-miterlimit:4;stroke-opacity:0.72941176;stroke-dasharray:none"
         d="m 324.28571,-40.494961 c 5.15079,-2.575394 -2.14285,-11.384102 -2.14285,-17.142858 0,-11.02203 -3.51453,-24.383048 -11.42857,-30.714285 -1.62087,-1.296689 -6.3078,-10.769479 -7.14286,-12.857146 -1.01826,-2.54564 -1.27438,-4.69161 -2.14286,-6.42857 m 9.28572,19.285716 c -2.52472,-6.311779 -6.35461,-8.970415 -14.28572,-12.142856 -1.25214,-0.50086 -3.02749,3.027491 -3.57143,3.571427 m 16.42857,4.285714 c -2.66366,-1.065466 6.27222,-7.700791 7.14286,-8.571431 1.17851,-1.17851 3.33334,0 5,0 m -23.57143,27.14286 c 0.50148,-2.005891 0.16154,-5.080766 2.85715,-6.428571 5.11544,-2.557724 21.18697,-4.758402 17.14285,-0.714286 -2.71052,1.355262 3.71805,-5.073309 6.42857,-6.428572 2.12959,-1.064794 3.80953,2.857143 5.71429,4.285715"
         inkscape:connector-curvature="0" />
      <path
         d="m 324.28571,-40.494961 c 5.15079,-2.575394 -2.14285,-11.384102 -2.14285,-17.142858 0,-11.02203 -3.51453,-24.383048 -11.42857,-30.714285 -1.62087,-1.296689 -6.3078,-10.769479 -7.14286,-12.857146 -1.01826,-2.54564 -1.27438,-4.69161 -2.14286,-6.42857 m 9.28572,19.285716 c -2.52472,-6.311779 -6.35461,-8.970415 -14.28572,-12.142856 -1.25214,-0.50086 -3.02749,3.027491 -3.57143,3.571427 m 16.42857,4.285714 c -2.66366,-1.065466 6.27222,-7.700791 7.14286,-8.571431 1.17851,-1.17851 3.33334,0 5,0 m -23.57143,27.14286 c 0.50148,-2.005891 0.16154,-5.080766 2.85715,-6.428571 5.11544,-2.557724 21.18697,-4.758402 17.14285,-0.714286 -2.71052,1.355262 3.71805,-5.073309 6.42857,-6.428572 2.12959,-1.064794 3.80953,2.857143 5.71429,4.285715"
         style="fill:none;stroke:#000000;stroke-width:1px;stroke-linecap:butt;stroke-linejoin:miter;stroke-opacity:1"
         id="path3280"
         inkscape:connector-curvature="0" />
    </g>
    <g
       id="g3419"
       transform="matrix(0.88865164,0,0,0.94669199,13.698191,413.8497)">
      <path
         style="fill:#9ee891;fill-opacity:1;fill-rule:evenodd;stroke:#000000;stroke-width:1px;stroke-linecap:butt;stroke-linejoin:miter;stroke-opacity:1"
         d="m 541.49402,-37.905678 c 5.70022,-1.525462 7.79321,-7.823133 10.82589,-12.224071 2.43717,-4.32407 6.00488,-8.239348 11.00833,-9.409683 12.85074,-4.090055 26.72081,-3.691685 39.36893,-8.537629 7.15168,-2.20202 15.35403,-5.504157 17.91629,-13.26033 3.17546,-10.734734 5.06156,-21.875139 5.03176,-33.086849 0.0101,-4.2222 3.51587,-9.50056 -0.30497,-12.92319 -5.75296,-3.17053 -12.66009,-2.89653 -19.04942,-2.99084 -13.55348,0.0869 -26.78125,3.47318 -39.67649,7.35113 -5.00303,1.68186 -11.04831,3.24766 -13.06574,8.7891 -3.51904,8.90677 -1.96479,18.692775 -2.32243,28.03344 -0.19835,4.687174 0.42904,9.459241 -0.37982,14.08791 -1.79038,4.986558 -7.40192,7.786313 -8.07967,13.36033 0.19285,4.20778 -1.12014,6.511092 -5.73695,6.346402"
         id="path3266"
         inkscape:connector-curvature="0" />
      <path
         id="path3369"
         style="fill:none;stroke:#297e1a;stroke-width:5;stroke-linecap:round;stroke-linejoin:round;stroke-miterlimit:4;stroke-opacity:0.72941176;stroke-dasharray:none"
         d="m 561.42857,-68.352104 c 2.98813,-1.494065 13.51711,-5.659961 17.14286,-9.285715 4.80746,-4.807464 5.83516,-7.643956 12.14286,-11.428571 6.1822,-3.709321 9.00804,-6.032182 10.71428,-12.85714 0.14363,-0.57451 6.8535,-1.85611 7.85714,-2.14286 m -15.71428,7.857143 c 0.61207,-2.448288 0.14584,-9.708313 -1.42857,-12.857143 -1.63018,-3.26036 -2.86858,-5.53857 -6.42857,-6.42857 m 0.71428,33.571427 c -1.05146,-2.10293 -3.9667,-9.680991 -7.14286,-12.857143 -3.33811,-3.338115 -7.31873,-5.772914 -11.42857,-7.142854 M 590,-91.209247 c -1.52243,-1.52243 12.52878,-0.439234 14.28571,0 1.36407,0.341017 2.9104,4.338964 4.28572,5.714286"
         inkscape:connector-curvature="0" />
      <path
         style="fill:none;stroke:#000000;stroke-width:1px;stroke-linecap:butt;stroke-linejoin:miter;stroke-opacity:1"
         d="m 561.42859,-68.352104 c 5.69686,-2.750968 11.82525,-4.908838 16.78314,-8.944316 3.88153,-3.749017 6.88051,-8.48944 11.64941,-11.243708 4.23644,-2.517849 8.87004,-5.314872 10.57707,-10.233374 0.63251,-1.807308 0.79615,-4.079078 3.27489,-4.004908 1.84528,-0.48151 3.71965,-0.83968 5.57261,-1.28798 m -15.7143,7.857146 c 0.59533,-4.067506 0.13913,-8.323286 -1.14633,-12.220736 -1.33996,-3.02473 -3.15196,-6.37287 -6.71079,-7.06498 m 0.7143,33.571429 c -2.55084,-5.43831 -4.67468,-11.546029 -9.75891,-15.188835 -2.63499,-2.088677 -5.62045,-3.745974 -8.81254,-4.811164 M 590,-91.209244 c 0.96901,-1.383271 4.08667,-0.577236 5.91309,-0.735627 2.87898,0.181326 5.81478,0.207676 8.63043,0.840886 1.83094,1.443778 2.44098,3.940667 4.02791,5.609024"
         id="path3288"
         inkscape:connector-curvature="0" />
    </g>
    <g
       id="g3424"
       transform="matrix(0.88865164,0,0,0.94669199,27.840327,418.90046)">
      <path
         style="fill:#9ee891;fill-opacity:1;fill-rule:evenodd;stroke:#000000;stroke-width:1px;stroke-linecap:butt;stroke-linejoin:miter;stroke-opacity:1"
         d="m 615.69696,89.706528 c 2.17368,-3.2074 2.70094,-7.38201 5.50055,-10.209234 2.51279,-2.993038 6.03215,-4.832571 8.92733,-7.382738 1.69105,-1.755435 2.45355,-4.22184 4.35551,-5.807106 2.47071,-4.08808 1.91691,-9.107847 1.42665,-13.640291 -2.56559,-3.834858 -3.39825,-8.830464 -7.07704,-11.896651 -4.54399,0.695268 -9.07104,1.825601 -13.27267,3.710561 -3.153,1.803296 -3.68426,5.778358 -3.63565,9.075988 -0.0232,3.947545 0.20187,7.963535 -0.83643,11.814301 -0.44828,2.440575 0.10977,4.874867 0.56521,7.262099 0.25037,2.112914 -0.27713,4.532914 1.28929,6.260451 1.82534,2.65764 2.14919,6.01683 1.20447,9.060049"
         id="path3192"
         inkscape:connector-curvature="0" />
      <path
         id="path3373"
         style="fill:none;stroke:#297e1a;stroke-width:5;stroke-linecap:round;stroke-linejoin:round;stroke-miterlimit:4;stroke-opacity:0.72941176;stroke-dasharray:none"
         d="m 618.57143,74.147895 c -0.49236,-2.180341 1.07462,-4.410076 2.5,-6.785714 0.80247,-1.337445 0.35714,-4.156455 0.35714,-6.071429 0,-1.357158 0.78444,-3.852017 1.07143,-5 0.68715,-2.748578 -0.19398,-3.020309 1.78572,-5 0.18823,-0.18823 0.47619,-0.238095 0.71428,-0.357142 0.39988,-0.199942 0.90101,-2.889736 1.07143,-3.571429 m -1.51786,4.464286 c 1.44342,-0.721711 6.38397,2.131728 7.58929,3.035714 0.18509,0.13882 1.20105,1.915338 1.42857,2.142857 m -10,-5.714286 c 1.71693,1.287697 -3.92527,-2.142857 -6.07143,-2.142857 -0.47619,0 -0.95238,0 -1.42857,0 -0.59524,0 0,1.190477 0,1.785715 m 14.10715,10.267856 c 0,-0.541313 -0.99708,-2.347483 -1.25001,-2.410714 -1.84789,-0.461972 -7.61905,0 -5.71428,0 1.93602,0.484005 -3.77827,-2.269719 -5.71429,-1.785714 -0.67343,0.168359 -0.90307,1.112279 -1.07143,1.785714"
         sodipodi:nodetypes="csssssccsccssccscsc"
         inkscape:connector-curvature="0" />
      <path
         style="fill:none;stroke:#000000;stroke-width:1px;stroke-linecap:butt;stroke-linejoin:miter;stroke-opacity:1"
         d="m 618.57141,74.147896 c -0.45171,-2.495567 1.25521,-4.623205 2.42496,-6.651978 1.15085,-2.229496 0.13794,-4.774211 0.52319,-7.137882 0.34338,-2.308399 1.32814,-4.496376 1.38552,-6.851796 0.0858,-1.725408 2.15404,-2.134015 2.55419,-3.578284 0.26,-0.841175 0.40031,-1.712465 0.61216,-2.565775 m -1.51784,4.464285 c 1.55732,-0.361957 3.01559,0.561401 4.39159,1.162458 1.17887,0.610273 2.42744,1.196121 3.38953,2.119472 0.428,0.621944 0.77782,1.295629 1.23672,1.896642 m -10.00002,-5.714286 c 0.46543,0.562913 -1.0236,-0.375808 -1.31849,-0.46005 -1.95949,-0.921441 -4.0727,-2.014913 -6.29813,-1.639446 -0.42828,0.4716 0.19371,1.200538 0.11664,1.742354 m 14.10716,10.267856 c -0.25165,-1.302683 -1.09973,-2.915405 -2.67046,-2.579543 -1.55732,-0.06799 -3.12365,-0.05612 -4.67097,0.149881 1.46203,0.204898 -0.556,-0.775825 -1.02839,-0.869801 -1.40995,-0.503721 -2.92256,-1.165338 -4.44145,-0.843738 -0.64593,0.325242 -0.75919,1.110339 -0.93875,1.732487"
         id="path3322"
         inkscape:connector-curvature="0" />
    </g>
    <g
       id="g3444"
       transform="matrix(0.85718884,-0.24967695,0.23436961,0.91317427,102.18821,394.65241)">
      <g
         id="g3449"
         transform="matrix(0.8539143,-0.5204136,0.5204136,0.8539143,-38.2464,89.950242)">
        <path
           style="fill:#9ee891;fill-opacity:1;fill-rule:evenodd;stroke:#000000;stroke-width:1px;stroke-linecap:butt;stroke-linejoin:miter;stroke-opacity:1"
           d="m 132.89758,128.66425 c -1.73221,-6.72279 -5.87578,-12.5961 -5.7605,-19.73097 0.72308,-7.4028 -3.76407,-12.855749 -11.35895,-11.666249 C 106.59143,95.867405 95.834257,94.548299 89.712499,86.788669 85.094521,77.974944 75.409745,73.105785 71.322858,63.921989 66.256951,56.604093 59.522568,50.395898 56.071547,42.033016 50.432849,32.157343 44.723909,19.559458 50.390021,8.472052 c 4.850722,-7.2326783 5.87067,-15.8912104 5.14967,-24.35006 -1.290522,-8.561965 6.537406,-14.548976 14.242348,-10.466895 9.029121,2.468823 18.029312,6.623877 27.621023,5.253078 8.567938,0.311635 16.284648,4.837851 23.461628,9.091363 7.79204,5.7635873 13.04356,15.3244477 12.48548,25.141062 2.4889,10.288426 1.80636,20.986189 4.41328,31.232364 3.33747,14.698069 1.13014,30.199038 -3.70713,44.305885 -0.48975,7.488096 -0.62994,15.296021 0.5782,22.799401 0.1067,6.20962 6.18763,9.88503 5.96215,15.94145"
           id="path3216"
           inkscape:connector-curvature="0" />
        <path
           style="fill:#297e1a;fill-opacity:0.72872338;fill-rule:evenodd;stroke:none"
           d="M 112.5625,-6.59375 C 106.49821,-6.6998787 100.26325,-3.2015273 95.34375,0.5 c -2.459751,1.8507637 -4.528821,3.7840699 -6,5.625 C 89.193842,6.3125844 89.138076,6.5325727 89,6.71875 87.858511,5.846026 86.663,5.0908858 85.46875,4.40625 83.032313,3.0094973 80.70013,1.8103152 79.0625,0.5625 l -2.84375,-4.40625 c -0.869362,-1.2537281 -2.55255,-1.6354394 -3.87769,-0.879378 -1.325139,0.7560614 -1.852994,2.3992878 -1.21606,3.785628 0.03307,0.0661498 0.479195,1.10700647 0.90625,2.03125 0.213528,0.4621218 0.436706,0.9208908 0.65625,1.34375 0.219544,0.4228592 0.132478,0.6324836 0.96875,1.46875 0.636908,0.6369073 0.871233,0.6838568 1.0625,0.78125 l 3.46875,5.40625 c -1.105479,0.473365 -2.173468,1.043034 -3.15625,1.65625 -2.096451,1.308101 -3.876656,2.784562 -4.9375,4.90625 0.0092,-0.01843 -1.346984,1.424994 -3.03125,2.96875 -1.684266,1.543756 -3.707512,3.477524 -5.03125,6.125 -0.565681,1.153135 -0.318376,2.539919 0.611035,3.426435 0.929412,0.886515 2.326326,1.068064 3.451465,0.448565 7.183567,-5.295976 12.938729,-17.257838 21.913072,-14.19686 l 9.172432,6.670686 c -5.905851,-1.937385 -19.48317,2.406232 -21.835504,6.244924 -2.793682,4.558912 -6.532175,8.502157 -8.125,12.21875 -0.133945,0.312539 -0.280792,0.563138 -0.40625,0.8125 l -3.75,2.40625 c -0.881885,0.574918 -1.389609,1.577028 -1.331571,2.628162 0.05804,1.051134 0.673002,1.991255 1.612821,2.465588 0.621291,0.310646 1.310286,0.633257 2.21875,0.75 0.908464,0.116743 2.039814,-0.08029 2.90625,-0.59375 1.448415,-0.858339 2.156696,-2.081328 2.875,-3.53125 6.785366,-5.692258 9.590461,-25.492469 28.102318,-16.342958 10.102672,2.919921 7.259152,10.725626 11.995872,12.40292 -4.27304,0.266643 -21.287853,1.034094 -24.91069,3.283788 -5.047573,3.134421 -8.36639,9.170398 -9.875,19.40625 -0.171809,1.117834 0.312011,2.235258 1.244747,2.874849 0.932735,0.63959 2.149433,0.688235 3.130253,0.125151 2.758726,-13.075142 7.89152,-24.42369 32.54743,-21.573606 8.61131,11.487441 10.13452,25.101312 12.23382,38.542356 0.4048,0.622471 1.53497,10.665413 2.25508,10.846449 1.43406,0.358516 2.09307,2.228027 3.55234,1.205267 1.45927,-1.02276 2.42471,-14.09455 2.47383,-15.364216 0.0982,-2.539333 -0.76373,-4.914022 -1.8125,-7.6875 -2.09754,-5.546956 -5.36758,-12.28284 -6.1875,-15.5625 -1.16293,-4.651756 -3.63605,-8.819681 -6.21875,-12.84375 l 13.65625,-7.875 c 1.08926,-0.618068 1.66817,-1.857682 1.44289,-3.089647 -0.22527,-1.231965 -1.2054,-2.186497 -2.44289,-2.379103 -4.80326,-0.797961 -9.24704,1.289161 -12.5625,3.625 -1.61072,1.134804 -2.91924,2.363185 -3.9375,3.59375 -1.65721,-2.625811 -3.2249,-5.202872 -4.21875,-7.6875 -0.98247,-2.456182 -2.49425,-4.397013 -4.15625,-6.15625 L 128.9375,15.875 c 1.36193,-0.576372 2.08479,-2.073757 1.68898,-3.498675 -0.39581,-1.424918 -1.7874,-2.334956 -3.25148,-2.126325 -0.96865,0.138379 -4.32816,0.337272 -7.59375,0.59375 -3.26559,0.256478 -6.28182,0.387728 -8.75,1.375 -2.39798,0.959194 -4.12864,2.749797 -5.90625,4.59375 -1.14868,1.191555 -1.92864,2.110114 -2.8125,3.125 -3.034341,-2.503811 -5.994168,-4.876869 -8.09375,-7.25 4.020824,-10.9664518 13.34961,-12.49652286 23.34375,-12.84375 0.9459,-0.50619346 1.5415,-1.486915 1.5545,-2.5596614 0.013,-1.0727464 -0.55865,-2.0676164 -1.492,-2.5965886 -1.60422,-0.9270423 -3.35687,-1.2514006 -5.0625,-1.28125 z M 120.03125,42.5 c 0.0272,0.12051 0.0582,0.156382 0.0625,0.25 -0.0172,-0.08421 -0.038,-0.167619 -0.0625,-0.25 z"
           id="path3345"
           sodipodi:nodetypes="csscsccsssssccssscscccssccsssscccscscccsssssccscscsccssssscccscccsc"
           inkscape:connector-curvature="0" />
        <path
           style="fill:none;stroke:#000000;stroke-width:1px;stroke-linecap:butt;stroke-linejoin:miter;stroke-opacity:1"
           d="M 129.047,92.969803 C 130.04902,82.941568 127.41634,73.005035 125.32084,63.270365 124.0634,54.849177 119.08453,47.812521 114.52387,40.871439 110.85637,35.738298 109.61486,29.011708 104.38748,25.026903 99.602271,20.685873 93.694918,17.330488 90.357288,11.605997 86.614509,7.0447535 79.966004,6.1946173 76.327889,1.5947004 75.7603,0.50611788 75.277818,-0.62363455 74.751287,-1.7319987 M 91.418808,11.905061 c 0.005,-4.1832687 4.782816,-6.7703119 7.724776,-9.2862722 4.977626,-3.28683753 11.021656,-7.0191479 17.203836,-5.2566472 l 0.83028,0.4007837 M 90.913727,13.420289 c -3.826487,-3.107245 -9.300185,-0.938318 -13.080736,1.188163 -3.927889,2.390025 -5.850722,6.814898 -9.615097,9.478036 -0.993535,1.043583 -1.909495,2.182095 -2.557977,3.475937 m 37.375653,-3.030458 c -0.10197,1.58545 3.24544,-3.383541 4.52279,-4.407107 2.69257,-3.466059 6.5836,-5.795295 11.07002,-5.645719 3.3822,-0.348603 6.78638,-0.438271 10.16608,-0.806313 m -28.03174,10.859139 c -3.062024,-0.03602 -8.981583,-0.243527 -13.109336,0.277829 -7.792827,2.470037 -12.861931,9.791547 -16.40743,16.763142 -1.149604,1.98651 -2.211076,7.309766 -5.586037,5.182385 M 133.0876,34.886032 c -5.7334,-0.620589 -11.41347,2.81996 -14.7018,7.345955 -1.89349,3.779326 -9.37113,1.813374 -13.60127,2.687651 -6.789357,0.18723 -15.018438,0.244684 -19.405775,6.374892 -2.945175,4.030138 -4.066944,9.04879 -4.819088,13.896076"
           id="path3337"
           inkscape:connector-curvature="0" />
      </g>
    </g>
    <g
       id="g3454"
       transform="matrix(0.36728621,0.41168246,-0.39161767,0.39651437,-35.386421,132.50429)">
      <g
         id="g3456">
        <path
           style="fill:#9ee891;fill-opacity:1;fill-rule:evenodd;stroke:#000000;stroke-width:1.65577972px;stroke-linecap:butt;stroke-linejoin:miter;stroke-opacity:1"
           d="m 886.83105,-2.9048278 c 0.7063,0.4117632 0.44267,-4.3450741 0.65334,-5.8146093 0.35707,-8.3171389 1.54306,-16.7630639 -0.0144,-25.0183949 -2.8359,-10.518471 -12.33243,-18.188087 -13.46971,-29.31348 -1.24928,-9.096465 0.49017,-18.397912 -1.51019,-27.4199 1.31649,-5.907487 6.16108,-9.976988 9.70567,-14.583408 4.61643,-5.43539 10.00492,-10.44161 16.65017,-13.25654 3.83437,-1.82379 7.57433,-3.9678 11.50539,-5.5148 4.66611,-0.40132 8.39145,2.99461 12.0852,5.31006 4.83258,3.48413 9.21014,7.55399 13.36799,11.80898 2.5551,5.42849 0.88988,11.534484 0.38197,17.215286 -1.13673,7.308652 -2.32113,14.635441 -2.61881,22.033739 -1.38793,7.886116 -6.65204,14.243612 -9.5444,21.553426 -3.27023,5.9338 -10.24321,8.229516 -14.35712,13.351522 -1.90558,3.602663 -2.96574,7.595444 -4.24694,11.444347 -1.25274,5.008678 -1.47976,10.20527 -1.44527,15.3466321"
           id="path3458"
           inkscape:connector-curvature="0" />
        <path
           id="path3460"
           style="fill:none;stroke:#297e1a;stroke-width:8.27889824;stroke-linecap:round;stroke-linejoin:round;stroke-miterlimit:4;stroke-opacity:0.72941176;stroke-dasharray:none"
           d="m 903.97392,-40.047678 c 3.20451,-0.45779 2.85715,-17.28699 2.85715,-24.28572 0,-8.30492 -1.42858,-17.14249 -1.42858,-25.71428 0,-5.45466 0,-10.401702 0,-15.714292 m 0,15.714292 c 0,-6.9486 -15.30554,2.4484 -17.14285,4.28571 -2.87692,2.87692 -3.61685,7.41536 -4.28572,11.42857 m 23.02303,-15.71428 c 6.61425,-4.666359 19.14268,-6.203773 20.25997,2.020305 m -42.45359,28.160441 c -2.03604,-7.330229 14.33923,-12.141076 21.436,-9.67567 8.96623,0.450915 8.51545,-5.785937 20.85914,0.750176"
           sodipodi:nodetypes="cssccsccsccc"
           inkscape:connector-curvature="0" />
        <path
           style="fill:none;stroke:#000000;stroke-width:1.65577972px;stroke-linecap:butt;stroke-linejoin:miter;stroke-opacity:1"
           d="m 903.97394,-40.04768 c 1.54283,-0.626409 1.64832,-2.637055 2.0169,-4.050817 1.02354,-6.460595 0.81669,-13.031608 0.84113,-19.550769 0.0369,-9.58088 -1.65076,-19.084389 -1.42947,-28.67191 10e-6,-4.480265 -1e-5,-8.960534 -1e-5,-13.440794 m -2e-5,15.714294 c 0.23311,-1.829058 -1.69858,-2.870584 -3.29397,-2.492233 -3.70154,0.538813 -7.03912,2.415383 -10.2353,4.259124 -2.05332,1.231195 -4.20504,2.569794 -5.31083,4.787309 -1.55779,2.809449 -2.05844,6.034976 -2.58845,9.160078 m 23.02303,-15.714278 c 3.87435,-2.622208 8.63181,-4.096845 13.32416,-3.763618 2.79678,0.187521 5.81834,1.648197 6.65296,4.521155 0.13258,0.411148 0.22474,0.834853 0.28285,1.262766 m -42.45358,28.160441 c -0.7792,-2.584132 1.09859,-4.991194 3.13164,-6.354187 4.02484,-2.694389 8.93705,-3.883663 13.74065,-3.973291 1.61627,-0.03538 3.22518,0.247241 4.77213,0.661161 2.85762,0.204086 5.61238,-0.706537 8.24596,-1.705271 3.51219,-1.310495 7.27954,-0.05456 10.49077,1.485181 0.64563,0.304802 1.28302,0.626865 1.91398,0.960913"
           id="path3462"
           inkscape:connector-curvature="0" />
      </g>
    </g>
    <g
       id="g3739"
       transform="matrix(0.88865164,0,0,0.94669199,13.698191,417.89031)">
      <path
         style="fill:#9ee891;fill-opacity:1;fill-rule:evenodd;stroke:#000000;stroke-width:0.99999994px;stroke-linecap:butt;stroke-linejoin:miter;stroke-opacity:1"
         d="m 562.49261,117.17209 c -2.82347,-2.66824 -2.06856,-7.65241 -5.72918,-9.65681 -3.93717,-2.60477 -8.94961,-1.14139 -13.18916,-2.79453 -4.37103,-4.767646 -6.82455,-10.896766 -10.91286,-15.87493 -2.91749,-4.046604 -2.37512,-9.251757 -2.94563,-13.953844 -0.18266,-4.373532 -1.61966,-8.608808 -1.23258,-13.014145 0.0975,-3.423867 0.48118,-6.830974 0.64377,-10.251324 2.7685,-3.65504 7.77178,-3.928899 11.73678,-5.545501 3.41947,-1.736699 7.47061,-1.511923 10.75736,0.411532 4.10564,2.170836 7.50277,5.498427 11.79044,7.356796 3.15031,1.696344 4.25157,5.389607 3.97633,8.751258 0.12217,8.03368 0.11459,16.087009 -0.0225,24.110467 -1.20272,6.487833 -6.16265,12.137437 -5.15318,19.035031 -0.10632,4.48059 4.45714,5.3574 6.80487,7.90906 0.49119,0.74687 0.97431,1.56311 1.79996,1.98643"
         id="path3635"
         inkscape:connector-curvature="0" />
      <path
         d="m 558.66512,96.757875 c -5.27046,0 -3.34429,-10.415356 -7.07107,-14.142136 -3.71099,-3.710989 -5.05076,-6.637657 -5.05076,-13.131983 0,-3.202662 -1.01015,-6.80056 -1.01015,-11.111678 m 0,13.131983 c 0,-3.764616 -7.08984,2.791993 -10.10153,5.050763 m 15.15229,-5.050763 c 0,-3.371024 8.23953,-3.030458 10.10153,-3.030458 m -13.13199,13.131984 c 0,-2.896554 -5.05076,4.174514 -5.05076,7.071067 m 11.11168,-11.111678 c 0,-3.497713 6.61317,1.88948 7.07107,2.020305"
         style="fill:none;stroke:#297e1a;stroke-width:5;stroke-linecap:round;stroke-linejoin:round;stroke-miterlimit:4;stroke-opacity:0.72941176;stroke-dasharray:none"
         id="path3637"
         inkscape:connector-curvature="0" />
      <path
         style="fill:none;stroke:#000000;stroke-width:1px;stroke-linecap:butt;stroke-linejoin:miter;stroke-opacity:1"
         d="m 558.6651,96.757874 c -2.07749,0.09385 -3.22053,-2.001217 -3.64784,-3.748297 -1.00602,-3.33485 -0.9433,-7.129347 -3.08999,-10.025379 -2.27573,-2.231085 -4.33048,-4.894276 -4.9148,-8.10619 -0.71541,-3.241936 -0.24388,-6.596216 -0.88004,-9.851326 -0.31043,-2.205673 -0.60416,-4.422906 -0.59929,-6.654604 m 0,13.131981 c -0.0719,-2.115199 -2.55933,-0.677763 -3.52321,0.0038 -2.31923,1.511995 -4.3836,3.367854 -6.57832,5.04693 m 15.15231,-5.050765 c 0.10094,-1.836122 2.22115,-2.373717 3.71534,-2.673267 2.10407,-0.38543 4.25514,-0.381233 6.38617,-0.357189 m -13.13196,13.13198 c -0.45036,-1.772254 -2.23708,0.964414 -2.76185,1.702633 -1.04491,1.631758 -2.12052,3.396894 -2.28894,5.368438 m 11.1117,-11.111674 c 0.24312,-2.374485 3.21478,-0.476919 4.32149,0.206472 0.94472,0.56136 1.81139,1.245015 2.74956,1.813829"
         id="path3639"
         inkscape:connector-curvature="0" />
    </g>
    <g
       id="g3691"
       transform="matrix(0.88865164,0,0,0.94669199,13.698191,413.8497)">
      <path
         sodipodi:nodetypes="cssssccsssssc"
         style="fill:#9ee891;fill-opacity:1;fill-rule:evenodd;stroke:#000000;stroke-width:0.99999994px;stroke-linecap:butt;stroke-linejoin:miter;stroke-opacity:1"
         d="m 348.80102,-11.047482 c -2.48523,-3.210817 0.85873,-10.023373 -1.28453,-14.293789 -2.02873,-4.042228 -6.40065,-4.860799 -10.50834,-8.365258 -1.57099,-1.340282 -1.88504,-16.086697 -2.97242,-19.33323 -1.51697,-4.529159 2.83737,-14.699064 5.42235,-19.370117 1.90438,-3.441206 2.52502,-3.314775 6.01325,-6.334819 2.60023,-2.251232 14.4329,-8.895602 16.20606,-8.903389 7.09511,3.902886 10.69217,9.45981 11.64461,12.839398 2.76471,9.810164 2.18323,7.988636 3.09463,14.432987 1.0542,7.454112 -6.69198,13.487695 -10.03798,20.231542 -1.29949,2.619129 -8.05128,7.359495 -10.05659,9.717333 -4.30772,5.065027 -2.61172,7.970193 0.85884,10.931083 1.34575,1.148132 0.6235,3.625495 1.68788,5.039447"
         id="path3670"
         inkscape:connector-curvature="0" />
      <path
         id="path3672"
         style="fill:none;stroke:#297e1a;stroke-width:5;stroke-linecap:round;stroke-linejoin:round;stroke-miterlimit:4;stroke-opacity:0.72941176;stroke-dasharray:none"
         d="m 353.78537,-34.534786 c -4.72129,-2.342487 1.63334,-10.816474 -0.0487,-15.811315 -1.67494,-4.973678 -1.57433,-8.190858 1.31211,-14.008481 1.42344,-2.868947 2.11766,-6.540914 4.03376,-10.402817 m -5.83659,11.763641 c 1.67321,-3.372346 -7.592,-0.650051 -11.2938,0.03479 m 15.81828,2.210046 c 1.49827,-3.019766 8.72788,0.94742 10.39586,1.774997 m -17.60023,5.927052 c 1.28739,-2.594735 -6.37986,1.494694 -7.66725,4.089428 m 14.8925,-5.015199 c 1.55458,-3.133254 5.08429,4.631859 5.43633,4.952569"
         inkscape:connector-curvature="0" />
      <path
         d="m 353.78537,-34.534786 c -4.72129,-2.342487 1.63334,-10.816474 -0.0487,-15.811315 -1.67494,-4.973678 -1.57433,-8.190858 1.31211,-14.008481 1.42344,-2.868947 2.11766,-6.540914 4.03376,-10.402817 m -5.83659,11.763641 c 1.67321,-3.372346 -7.592,-0.650051 -11.2938,0.03479 m 15.81828,2.210046 c 1.49827,-3.019766 8.72788,0.94742 10.39586,1.774997 m -17.60023,5.927052 c 1.28739,-2.594735 -6.37986,1.494694 -7.66725,4.089428 m 14.8925,-5.015199 c 1.55458,-3.133254 5.08429,4.631859 5.43633,4.952569"
         style="fill:none;stroke:#000000;stroke-width:1px;stroke-linecap:butt;stroke-linejoin:miter;stroke-opacity:1"
         id="path3674"
         inkscape:connector-curvature="0" />
    </g>
    <path
       style="fill:url(#linearGradient3824);fill-opacity:1;fill-rule:nonzero;stroke:none;stroke-width:5.00000048;marker:none;visibility:visible;display:inline;overflow:visible;enable-background:accumulate"
       d="m 222.14387,1005.4635 12.25,31.4062 365.78125,0 12.25,-31.4062 -390.28125,0 z"
       id="path3797"
       inkscape:connector-curvature="0" />
    <text
       xml:space="preserve"
       style="font-size:12px;font-style:normal;font-weight:normal;fill:#000000;fill-opacity:1;stroke:none;font-family:Bitstream Vera Sans"
       x="244.45692"
       y="909.93066"
       id="text3830"><tspan
         sodipodi:role="line"
         id="tspan3832"
         x="244.45692"
         y="909.93066" /></text>
  </g>
  <g
     inkscape:groupmode="layer"
     id="layer2"
     inkscape:label="Soil"
     style="display:inline"
     transform="translate(0,-252.36218)">
    <path
       style="opacity:0.9557522;fill:#4a2906;fill-opacity:0.90957444;fill-rule:nonzero;stroke:none;stroke-width:5.00000048;marker:none;visibility:visible;display:inline;overflow:visible;enable-background:accumulate"
       d="m 226.93418,618.5959 30.03125,302.84375 321.15625,0 30,-302.84375 -381.1875,0 z"
       id="path3183"
       inkscape:connector-curvature="0" />
  </g>
  <g
     inkscape:groupmode="layer"
     id="layer3"
     inkscape:label="Numbers"
     style="display:inline"
     transform="translate(0,-252.36218)">
    <g
       style="display:inline"
       id="g3859"
       transform="matrix(1.9214392,0,0,1.9214392,-528.58759,-611.81719)">
      <path
         sodipodi:type="arc"
         style="fill:#ffffff;fill-opacity:1;fill-rule:nonzero;stroke:#000000;stroke-width:0.86142331;stroke-linecap:round;stroke-linejoin:round;stroke-miterlimit:4;stroke-opacity:1;stroke-dasharray:none;stroke-dashoffset:0;marker:none;visibility:visible;display:inline;overflow:visible;enable-background:accumulate"
         id="path3852"
         sodipodi:cx="251.52798"
         sodipodi:cy="937.20477"
         sodipodi:rx="12.121831"
         sodipodi:ry="12.121831"
         d="m 263.64982,937.20477 c 0,6.69471 -5.42713,12.12183 -12.12184,12.12183 -6.6947,0 -12.12183,-5.42712 -12.12183,-12.12183 0,-6.6947 5.42713,-12.12183 12.12183,-12.12183 6.69471,0 12.12184,5.42713 12.12184,12.12183 z"
         transform="matrix(1.2083333,0,0,1.2083333,300.64665,-307.883)" />
      <text
         sodipodi:linespacing="100%"
         id="text3826"
         y="835.84076"
         x="599.40826"
         style="font-size:36px;font-style:normal;font-variant:normal;font-weight:normal;font-stretch:normal;text-align:start;line-height:100%;writing-mode:lr-tb;text-anchor:start;fill:#000000;fill-opacity:1;stroke:none;font-family:Harrington;-inkscape-font-specification:Harrington"
         xml:space="preserve"><tspan
           y="835.84076"
           x="599.40826"
           id="tspan3828"
           sodipodi:role="line">1</tspan></text>
    </g>
    <g
       style="display:inline"
       id="g3864"
       transform="matrix(2.0042866,0,0,2.0042866,-249.75363,-848.02833)">
      <path
         transform="matrix(1.2083333,0,0,1.2083333,7.7024151,-217.97942)"
         d="m 263.64982,937.20477 c 0,6.69471 -5.42713,12.12183 -12.12184,12.12183 -6.6947,0 -12.12183,-5.42712 -12.12183,-12.12183 0,-6.6947 5.42713,-12.12183 12.12183,-12.12183 6.69471,0 12.12184,5.42713 12.12184,12.12183 z"
         sodipodi:ry="12.121831"
         sodipodi:rx="12.121831"
         sodipodi:cy="937.20477"
         sodipodi:cx="251.52798"
         id="path3846"
         style="fill:#ffffff;fill-opacity:0.91372549;fill-rule:nonzero;stroke:#000000;stroke-width:0.82581627;stroke-linecap:round;stroke-linejoin:round;stroke-miterlimit:4;stroke-opacity:1;stroke-dasharray:none;stroke-dashoffset:0;marker:none;visibility:visible;display:inline;overflow:visible;enable-background:accumulate"
         sodipodi:type="arc" />
      <text
         xml:space="preserve"
         style="font-size:36px;font-style:normal;font-variant:normal;font-weight:normal;font-stretch:normal;text-align:start;line-height:100%;writing-mode:lr-tb;text-anchor:start;fill:#000000;fill-opacity:1;stroke:none;font-family:Harrington;-inkscape-font-specification:Harrington"
         x="303.43359"
         y="924.73419"
         id="text3834"
         sodipodi:linespacing="100%"><tspan
           sodipodi:role="line"
           id="tspan3836"
           x="303.43359"
           y="924.73419">2</tspan></text>
    </g>
    <g
       style="display:inline"
       id="g3869"
       transform="matrix(1.8216891,0,0,1.8216891,-589.73601,-693.99899)">
      <path
         sodipodi:type="arc"
         style="fill:#ffffff;fill-opacity:0.95686275;fill-rule:nonzero;stroke:#000000;stroke-width:0.90859222;stroke-linecap:round;stroke-linejoin:round;stroke-miterlimit:4;stroke-opacity:1;stroke-dasharray:none;stroke-dashoffset:0;marker:none;visibility:visible;display:inline;overflow:visible;enable-background:accumulate"
         id="path3848"
         sodipodi:cx="251.52798"
         sodipodi:cy="937.20477"
         sodipodi:rx="12.121831"
         sodipodi:ry="12.121831"
         d="m 263.64982,937.20477 c 0,6.69471 -5.42713,12.12183 -12.12184,12.12183 -6.6947,0 -12.12183,-5.42712 -12.12183,-12.12183 0,-6.6947 5.42713,-12.12183 12.12183,-12.12183 6.69471,0 12.12184,5.42713 12.12184,12.12183 z"
         transform="matrix(1.2083333,0,0,1.2083333,161.2456,-216.96927)" />
      <text
         sodipodi:linespacing="100%"
         id="text3838"
         y="926.75452"
         x="456.97681"
         style="font-size:36px;font-style:normal;font-variant:normal;font-weight:normal;font-stretch:normal;text-align:start;line-height:100%;writing-mode:lr-tb;text-anchor:start;fill:#000000;fill-opacity:1;stroke:none;font-family:Harrington;-inkscape-font-specification:Harrington"
         xml:space="preserve"><tspan
           y="926.75452"
           x="456.97681"
           id="tspan3840"
           sodipodi:role="line">3</tspan></text>
    </g>
    <g
       style="display:inline"
       id="g3854"
       transform="matrix(1.9129878,0,0,1.9129878,-565.75347,-552.74867)">
      <path
         transform="matrix(1.2083333,0,0,1.2083333,268.32177,-398.79673)"
         d="m 263.64982,937.20477 c 0,6.69471 -5.42713,12.12183 -12.12184,12.12183 -6.6947,0 -12.12183,-5.42712 -12.12183,-12.12183 0,-6.6947 5.42713,-12.12183 12.12183,-12.12183 6.69471,0 12.12184,5.42713 12.12184,12.12183 z"
         sodipodi:ry="12.121831"
         sodipodi:rx="12.121831"
         sodipodi:cy="937.20477"
         sodipodi:cx="251.52798"
         id="path3850"
         style="opacity:0.9557522;fill:#ffffff;fill-opacity:0.95686304;fill-rule:nonzero;stroke:#000000;stroke-width:0.86522895;stroke-linecap:round;stroke-linejoin:round;stroke-miterlimit:4;stroke-opacity:1;stroke-dasharray:none;stroke-dashoffset:0;marker:none;visibility:visible;display:inline;overflow:visible;enable-background:accumulate"
         sodipodi:type="arc" />
      <text
         xml:space="preserve"
         style="font-size:36px;font-style:normal;font-variant:normal;font-weight:normal;font-stretch:normal;text-align:start;line-height:100%;writing-mode:lr-tb;text-anchor:start;fill:#000000;fill-opacity:1;stroke:none;font-family:Harrington;-inkscape-font-specification:Harrington"
         x="562.03265"
         y="744.92706"
         id="text3842"
         sodipodi:linespacing="100%"><tspan
           sodipodi:role="line"
           id="tspan3844"
           x="562.03265"
           y="744.92706">4</tspan></text>
    </g>
  </g>
</svg>
